<?xml version="1.0" standalone="no"?>
<!DOCTYPE svg PUBLIC "-//W3C//DTD SVG 1.1//EN" "http://www.w3.org/Graphics/SVG/1.1/DTD/svg11.dtd" >
<svg>
<metadata>
Created by FontForge 20090622 at Fri Jul  3 12:22:57 2015
 By deploy user
Copyright &#194;&#169; 1993, 1994, 2001 Adobe Systems Incorporated.  All Rights Reserved.
</metadata>
<defs>
<font id="ITCAvantGardeStd-BoldObl" horiz-adv-x="618" >
  <font-face 
    font-family="ITC Avant Garde Std Md"
    font-weight="700"
    font-style="italic"
    font-stretch="normal"
    units-per-em="1000"
    panose-1="2 11 8 2 2 2 2 2 2 4"
    ascent="740"
    descent="-260"
    x-height="555"
    cap-height="740"
    bbox="-118 -287 1256.02 1017"
    underline-thickness="50"
    underline-position="-50"
    slope="-10.5"
    unicode-range="U+0020-U+FB02"
  />
<missing-glyph horiz-adv-x="629" 
d="M129 0v700h500v-700h-500zM379 395l170 255h-340zM409 350l170 -255v510zM209 50h340l-170 255zM179 605v-510l170 255z" />
    <glyph glyph-name="fi" unicode="fi" horiz-adv-x="601" 
d="M455 429h-143l-80 -429h-166l80 429h-62l23 126h62l4 24q9 47 29 80t44 51t60 28.5t65.5 13t70.5 2.5l-23 -125q-22 0 -34 -1.5t-26.5 -14t-19.5 -37.5l-4 -21h309l-103 -555h-166zM655 614h-166l23 126h166z" />
    <glyph glyph-name="fl" unicode="fl" horiz-adv-x="601" 
d="M455 429h-143l-80 -429h-166l80 429h-62l23 126h62l4 24q9 47 29 80t44 51t60 28.5t65.5 13t70.5 2.5l-23 -125q-22 0 -34 -1.5t-26.5 -14t-19.5 -37.5l-4 -21h143l34 184h166l-137 -739h-166z" />
    <glyph glyph-name=".notdef" horiz-adv-x="629" 
d="M129 0v700h500v-700h-500zM379 395l170 255h-340zM409 350l170 -255v510zM209 50h340l-170 255zM179 605v-510l170 255z" />
    <glyph glyph-name=".null" horiz-adv-x="0" 
 />
    <glyph glyph-name="nonmarkingreturn" horiz-adv-x="333" 
 />
    <glyph glyph-name="space" unicode=" " horiz-adv-x="309" 
 />
    <glyph glyph-name="exclam" unicode="!" horiz-adv-x="333" 
d="M389 740l-92 -496h-171l92 496h171zM284 170l-32 -170h-171l32 170h171z" />
    <glyph glyph-name="quotedbl" unicode="&#x22;" horiz-adv-x="463" 
d="M281 444h-124l55 296h124zM470 444h-124l55 296h124z" />
    <glyph glyph-name="numbersign" unicode="#" 
d="M477 231l-56 -174h-113l56 174h-78l-56 -174h-114l56 174h-99l35 111h100l24 73h-100l35 111h100l52 158h114l-52 -158h78l52 158h114l-52 -158h111l-35 -111h-112l-24 -73h111l-35 -111h-112zM400 342l24 73h-78l-24 -73h78z" />
    <glyph glyph-name="dollar" unicode="$" 
d="M531 811l-18 -101q60 -15 89.5 -64.5t13.5 -125.5h-155q5 24 -5 43.5t-38 19.5q-25 0 -42.5 -16.5t-21.5 -39.5q-7 -35 18 -54t98 -49q41 -17 67.5 -42.5t35 -51.5t11.5 -53t-3 -45q-13 -67 -63 -123t-132 -84l-19 -101h-135l19 101q-78 12 -110 71.5t-19 127.5h171
q-6 -29 6.5 -50t38.5 -21q25 0 44.5 18t23.5 41q3 17 -3 32t-16 25t-30 21t-33.5 16.5l-37.5 15.5q-132 47 -106 186q16 84 71.5 133.5t126.5 68.5l18 101h135z" />
    <glyph glyph-name="percent" unicode="%" horiz-adv-x="858" 
d="M142 574l1 1q13 74 76 127t137 53q75 0 117.5 -53t28.5 -128q-13 -75 -76 -127.5t-137 -52.5t-117 52.5t-30 127.5zM253 574v-1q-5 -27 12 -47.5t45 -20.5t52 20.5t30 49.5q5 29 -11.5 49t-45.5 20t-52.5 -20t-29.5 -50zM492 166v1q14 74 76.5 127t137.5 53q74 0 117 -53
t30 -128q-14 -75 -77.5 -128t-136.5 -53q-74 0 -117.5 52.5t-29.5 128.5zM603 166v-1q-5 -28 11.5 -48.5t45.5 -20.5q28 0 52.5 20.5t29.5 49.5q5 30 -11.5 50t-44.5 20q-30 0 -54 -20.5t-29 -49.5zM775 740l-444 -740h-115l443 740h116z" />
    <glyph glyph-name="ampersand" unicode="&#x26;" horiz-adv-x="758" 
d="M631 435h175l-162 -225l91 -114l-134 -111l-73 93q-26 -34 -81 -63.5t-135 -29.5q-121 0 -182 61.5t-44 153.5q6 31 21 60t31 48t42 40t41 30.5l40 24.5q-56 71 -41 160q15 81 85 136t156 55q84 0 129 -53t31 -129q-8 -44 -36.5 -83t-48 -53.5t-48.5 -33.5l66 -83z
M437 620h-1q-17 0 -33 -13t-20 -36q-7 -36 27 -80q18 15 27 23.5t20 25t14 33.5q4 20 -5 33.5t-29 13.5zM439 185l-95 118q-20 -14 -30.5 -22.5t-24.5 -26.5t-18 -37q-6 -34 16 -53.5t60 -19.5q57 0 92 41z" />
    <glyph glyph-name="quotesingle" unicode="'" horiz-adv-x="242" 
d="M265 444h-124l55 296h124z" />
    <glyph glyph-name="parenleft" unicode="(" horiz-adv-x="473" 
d="M570 754l-34 -183q-77 -30 -150 -117.5t-96 -209.5q-21 -116 18 -204t107 -120l-34 -184q-59 20 -107 53.5t-79.5 74.5t-53 88t-30.5 97.5t-9 99.5t9 97q13 73 47.5 147t89.5 145t138.5 128.5t183.5 87.5z" />
    <glyph glyph-name="parenright" unicode=")" horiz-adv-x="473" 
d="M-6 -264l34 183q76 30 149.5 118t96.5 209q21 116 -18 204t-107 120l34 184q59 -20 107 -53.5t79.5 -74.5t53 -88t30.5 -97.5t9 -99.5t-9 -97q-13 -73 -48 -147t-90 -145t-138 -128.5t-183 -87.5z" />
    <glyph glyph-name="asterisk" unicode="*" horiz-adv-x="670" 
d="M526 740l-60 -153l137 103l34 -94l-152 -46l135 -46l-74 -98l-96 106l6 -152h-108l60 154l-134 -108l-38 98l153 48l-136 44l70 94l101 -102l-6 152h108z" />
    <glyph glyph-name="plus" unicode="+" horiz-adv-x="600" 
d="M474 506l-32 -173h172l-30 -160h-172l-32 -173h-160l32 173h-172l30 160h172l32 173h160z" />
    <glyph glyph-name="comma" unicode="," horiz-adv-x="314" 
d="M275 170l-147 -250h-137l111 250h173z" />
    <glyph glyph-name="hyphen" unicode="-" horiz-adv-x="281" 
d="M69 370h281l-31 -163h-281z" />
    <glyph glyph-name="period" unicode="." horiz-adv-x="314" 
d="M276 170l-32 -170h-173l32 170h173z" />
    <glyph glyph-name="slash" unicode="/" horiz-adv-x="593" 
d="M53 -100l421 840h184l-420 -840h-185z" />
    <glyph glyph-name="zero" unicode="0" 
d="M82 267l39 206q14 76 52.5 133.5t88.5 88t98 45t92 14.5q25 0 52 -5.5t56.5 -18.5t52.5 -34.5t41.5 -52.5t22.5 -73t-4 -97l-39 -206q-11 -59 -37.5 -108t-60 -80.5t-74 -53t-79 -30.5t-74.5 -9q-35 0 -69.5 9t-68.5 29.5t-57 53t-33.5 80t1.5 109.5zM311 478l-40 -216
q-3 -24 -3 -48.5t17.5 -43t51.5 -18.5q83 0 108 110l40 216q19 110 -67 110q-35 0 -59.5 -20.5t-34 -42.5t-13.5 -47z" />
    <glyph glyph-name="one" unicode="1" 
d="M225 0l108 581h-121l29 159h310l-137 -740h-189z" />
    <glyph glyph-name="two" unicode="2" 
d="M51 0l27 147l230 168q42 30 63 47t46 41.5t38 48.5t18 53q8 42 -10 62.5t-54 20.5q-74 0 -98 -117h-180q25 111 76 170q37 45 89 72t88.5 34t71.5 7q118 0 172.5 -67t36.5 -162q-12 -70 -48.5 -124.5t-118.5 -117.5l-159 -124h263l-29 -159h-522z" />
    <glyph glyph-name="three" unicode="3" 
d="M336 524h-186q26 121 124 181q76 49 172 49q104 0 157 -60t37 -142q-7 -36 -22.5 -64t-38.5 -47t-34.5 -26.5t-30.5 -17.5q37 -13 61 -34.5t34 -41t12.5 -43.5t1.5 -35.5t-4 -24.5q-18 -96 -111.5 -164t-205.5 -68q-69 0 -127.5 26.5t-83.5 77.5q-23 47 -17 131h191
q4 -68 72 -69q40 0 65 23t32 60q5 24 -3.5 40.5t-25.5 23.5t-30 9t-27 2h-67l26 139h32q93 0 107 74q5 27 -4.5 46t-35.5 19q-56 0 -70 -64z" />
    <glyph glyph-name="four" unicode="4" 
d="M341 0l24 130h-326l26 138l418 472h176l-85 -462h82l-28 -148h-82l-24 -130h-181zM257 278h148l43 232z" />
    <glyph glyph-name="five" unicode="5" 
d="M253 740h409l-29 -159h-264l-35 -101q44 22 104 22q50 0 89.5 -16t62 -42t37.5 -58.5t15.5 -66.5t-3.5 -65q-8 -45 -33.5 -90.5t-66 -86t-102 -66.5t-132.5 -26q-115 0 -178.5 60.5t-63.5 152.5h190q24 -46 78 -46q41 0 76 29t42 69q7 39 -14.5 68t-68.5 29
q-68 0 -109 -64l-146 38z" />
    <glyph glyph-name="six" unicode="6" 
d="M410 740h219l-168 -183l-18 -20l-18 -20l7 1q6 0 15.5 0.5t15.5 0.5q42 0 79.5 -16t66 -46t40.5 -79.5t1 -109.5q-23 -124 -121.5 -203t-218.5 -79q-71 0 -126.5 25.5t-83.5 74.5q-49 71 -29 186q17 91 105 198zM254 255v-1q-9 -48 17 -75t64 -27q43 0 79 28.5t44 71.5
q7 39 -15.5 70t-70.5 31q-44 0 -77 -29t-41 -69z" />
    <glyph glyph-name="seven" unicode="7" 
d="M202 740h482l-27 -145l-370 -595h-208l381 581h-287z" />
    <glyph glyph-name="eight" unicode="8" 
d="M160 548v1q15 82 91.5 143.5t197.5 61.5t174.5 -61.5t38.5 -144.5q-16 -83 -99 -141q83 -46 60 -172q-20 -109 -109 -179t-208 -70t-181 70t-42 179q24 127 122 172l-9.5 9.5t-10 12t-11 16t-9 19t-7 24t-1.5 27.5t3 33zM340 533v-1q-6 -29 10.5 -48t44.5 -19t51.5 19.5
t29.5 48.5q5 29 -11.5 48.5t-44.5 19.5t-51.5 -19.5t-28.5 -48.5zM272 236v-1q-6 -31 11.5 -57t53.5 -26t63.5 26t33.5 58q6 33 -11.5 59t-54.5 26t-63.5 -26t-32.5 -59z" />
    <glyph glyph-name="nine" unicode="9" 
d="M347 0h-219l168 183l36 40l-6 -1q-7 0 -16.5 -0.5t-15.5 -0.5q-42 0 -79.5 16t-66 46t-40.5 79.5t-1 109.5q23 124 121.5 203t218.5 79q71 0 126.5 -25.5t83.5 -74.5q49 -71 29 -186q-18 -94 -105 -198zM503 486v1q9 47 -17 74t-66 27q-42 0 -77 -28t-43 -71
q-7 -39 14.5 -70t68.5 -31q45 0 78.5 29t41.5 69z" />
    <glyph glyph-name="colon" unicode=":" horiz-adv-x="314" 
d="M347 555l-32 -170h-173l32 170h173zM276 170l-32 -170h-173l32 170h173z" />
    <glyph glyph-name="semicolon" unicode=";" horiz-adv-x="314" 
d="M347 555l-32 -170h-173l32 170h173zM276 170l-157 -250h-127l111 250h173z" />
    <glyph glyph-name="less" unicode="&#x3c;" horiz-adv-x="600" 
d="M107 330l548 214l-33 -175l-361 -117l318 -115l-32 -175l-468 214z" />
    <glyph glyph-name="equal" unicode="=" horiz-adv-x="600" 
d="M134 465h504l-29 -160h-504zM85 201h504l-29 -160h-504z" />
    <glyph glyph-name="greater" unicode="&#x3e;" horiz-adv-x="600" 
d="M71 137l362 117l-319 115l33 175l468 -214l-28 -154l-548 -214z" />
    <glyph glyph-name="question" unicode="?" horiz-adv-x="592" 
d="M405 235h-174q10 49 40.5 86.5t95.5 89.5q81 67 89 110q10 62 -47 62q-63 0 -82 -75q-1 -3 -2.5 -10t-2.5 -11h-183q1 7 3 18q20 108 107 178.5t202 70.5q110 0 163 -65.5t37 -146.5q-6 -33 -20 -61t-39 -54t-41 -40.5t-49 -40.5q-54 -43 -72.5 -64.5t-24.5 -46.5z
M393 170l-32 -170h-174l32 170h174z" />
    <glyph glyph-name="at" unicode="@" horiz-adv-x="748" 
d="M624 112l4 -92q-107 -36 -239 -36q-70 0 -127 17.5t-93 47t-62.5 68t-35.5 81t-12.5 85.5t6.5 82q14 75 55 145t100.5 125t140.5 88t168 33q155 0 237 -94.5t56 -233.5q-20 -108 -94 -188.5t-152 -80.5q-72 0 -84 72q-33 -41 -64 -56.5t-69 -15.5q-64 0 -99.5 50.5
t-21.5 126.5q16 84 85 154t152 70q38 0 61 -17t27 -42l19 47h104l-78 -218q-1 -4 -5 -15l-7 -20t-4 -13q-7 -29 22 -29t65 52t49 122q19 104 -41 171t-171 67q-128 0 -227.5 -90.5t-122.5 -211.5q-4 -23 -4.5 -49t4 -60.5t20.5 -64.5t42 -56.5t72 -42t106 -15.5
q110 0 218 37zM346 340v-1q-8 -43 10.5 -64.5t48.5 -21.5q58 0 94 68q16 31 22 64q6 32 -5.5 56.5t-45.5 24.5q-42 0 -78.5 -38.5t-45.5 -87.5z" />
    <glyph glyph-name="A" unicode="A" horiz-adv-x="758" 
d="M268 107l-54 -107h-205l430 740h163l147 -740h-207l-15 107h-259zM506 257l-36 258l-127 -258h163z" />
    <glyph glyph-name="B" unicode="B" horiz-adv-x="647" 
d="M67 0l137 740h272q115 0 170 -50q57 -49 39 -144q-18 -100 -113 -149q111 -42 90 -172q-9 -46 -34.5 -90t-63.5 -71q-57 -41 -106 -52.5t-148 -11.5h-243zM362 574l-21 -115h67q33 0 51 7q33 14 40 52q7 37 -20 49q-15 7 -50 7h-67zM312 301l-25 -135h89q36 0 57 9
q41 16 50 62q8 42 -26 56q-17 8 -56 8h-89z" />
    <glyph glyph-name="C" unicode="C" horiz-adv-x="832" 
d="M654 277h198q-56 -131 -174.5 -211t-253.5 -80q-112 0 -192.5 54.5t-112.5 142.5t-13 188q18 96 79.5 182.5t162.5 143.5t217 57q82 0 147.5 -29.5t101.5 -75t54.5 -95t17.5 -95.5h-198q-10 51 -48 90t-107 39q-90 0 -156.5 -65.5t-81.5 -150.5q-17 -88 26 -154t132 -66
q41 0 78 15t62 39t38 39.5t23 31.5z" />
    <glyph glyph-name="D" unicode="D" horiz-adv-x="742" 
d="M67 0l137 740h245q36 0 57.5 -1t63 -8t70 -20.5t60 -41.5t51.5 -67q50 -93 25 -230q-14 -79 -47 -144t-86 -117.5t-134 -81.5t-183 -29h-259zM362 574l-75 -408h81q98 0 150 56.5t68 146.5q15 81 -10 137q-33 68 -132 68h-82z" />
    <glyph glyph-name="E" unicode="E" horiz-adv-x="528" 
d="M67 0l137 740h419l-31 -166h-230l-21 -115h223l-31 -166h-223l-23 -127h230l-31 -166h-419z" />
    <glyph glyph-name="F" unicode="F" horiz-adv-x="506" 
d="M67 0l137 740h404l-31 -166h-215l-23 -126h207l-31 -166h-207l-52 -282h-189z" />
    <glyph glyph-name="G" unicode="G" horiz-adv-x="854" 
d="M892 492h-212q-9 28 -30 50q-44 46 -115 46q-78 0 -150.5 -56.5t-91.5 -158.5q-20 -108 31.5 -165t130.5 -57q69 0 122 33q50 30 77 86h-221l28 151h439q-13 -116 -73 -212q-71 -113 -184 -168.5t-218 -55.5q-166 0 -258.5 113.5t-62.5 274.5q20 108 90 196t169.5 136.5
t207.5 48.5q130 0 220 -76t101 -186z" />
    <glyph glyph-name="H" unicode="H" horiz-adv-x="754" 
d="M256 0h-189l137 740h189l-51 -278h242l51 278h189l-137 -740h-189l55 296h-242z" />
    <glyph glyph-name="I" unicode="I" horiz-adv-x="323" 
d="M67 0l137 740h189l-137 -740h-189z" />
    <glyph glyph-name="J" unicode="J" horiz-adv-x="578" 
d="M647 740l-83 -447q-22 -123 -56 -176q-38 -56 -99 -88q-74 -43 -157 -43q-8 0 -17 0.5t-32 4t-42 10.5t-42 21.5t-38.5 34.5t-26 52t-9.5 72q0 32 5 57h201q-1 -4 -1.5 -11t-0.5 -11q-4 -64 43 -64q38 0 56 34q9 16 19 60l91 494h189z" />
    <glyph glyph-name="K" unicode="K" horiz-adv-x="707" 
d="M87 0l137 740h189l-62 -333l273 333h198l-312 -368l200 -372h-230l-145 320l-59 -320h-189z" />
    <glyph glyph-name="L" unicode="L" horiz-adv-x="487" 
d="M72 0l137 740h189l-106 -574h219l-31 -166h-408z" />
    <glyph glyph-name="M" unicode="M" horiz-adv-x="915" 
d="M241 0h-174l137 740h253l51 -477l223 477h254l-137 -740h-174l109 554l-263 -554h-125l-57 554z" />
    <glyph glyph-name="N" unicode="N" horiz-adv-x="759" 
d="M367 740l201 -451l79 451h181l-137 -740h-164l-200 446l-79 -446h-181l137 740h163z" />
    <glyph glyph-name="O" unicode="O" horiz-adv-x="851" 
d="M102 361v1q33 175 168 283.5t295 108.5q111 0 191.5 -53t114 -140.5t14.5 -190.5q-30 -158 -162.5 -271t-301.5 -113q-112 0 -192.5 54.5t-112.5 139.5t-14 181zM293 372v-1q-17 -89 27 -154t136 -65q93 0 159 68t80 149q15 82 -25.5 150.5t-134.5 68.5q-93 0 -160 -65.5
t-82 -150.5z" />
    <glyph glyph-name="P" unicode="P" horiz-adv-x="636" 
d="M204 740h242q96 0 143 -13.5t75 -40.5q74 -73 51 -196q-11 -56 -42.5 -110t-71.5 -84q-47 -34 -96.5 -49t-131.5 -15h-74l-43 -232h-189zM362 574l-32 -176h69q48 0 75 11q48 20 59 78q10 56 -33 76q-24 11 -76 11h-62z" />
    <glyph glyph-name="Q" unicode="Q" horiz-adv-x="866" 
d="M880 137l-27 -150q-30 -2 -48 -2q-119 0 -163 58q-105 -58 -219 -58q-115 0 -195.5 56.5t-111.5 142.5t-13 182q14 73 54.5 142.5t99.5 124t139.5 88t167.5 33.5t156 -32.5t109.5 -85.5t56.5 -121t3 -139q-22 -119 -101 -214q23 -25 92 -25zM534 588h-1q-66 0 -123 -37.5
t-92 -105.5q-1 -3 -6 -13.5t-7 -16.5q69 21 113 21q85 0 148 -50q51 -42 96 -104q28 37 38 94q17 95 -32 153.5t-134 58.5zM452 151h1q50 0 78 15q-22 38 -51 66q-44 44 -111 44q-42 0 -71 -11q13 -54 58.5 -84t95.5 -30z" />
    <glyph glyph-name="R" unicode="R" horiz-adv-x="653" 
d="M67 0l137 740h242q161 0 219 -53q77 -70 53 -202q-15 -76 -62 -134q-43 -52 -111 -79l103 -272h-195l-127 357h31q83 0 118 20q46 27 59 91q10 58 -28 86q-29 20 -74 20h-70l-106 -574h-189z" />
    <glyph glyph-name="S" unicode="S" horiz-adv-x="573" 
d="M70 245h188q-10 -56 11 -78.5t48 -22.5q32 0 56 22t29 49t-16.5 43t-101.5 52q-6 3 -9 4l-36.5 17t-40.5 26.5t-40.5 40t-23 55t-1.5 73.5q20 105 110.5 166.5t191.5 61.5q33 0 64 -6.5t61 -23.5t51 -42t30 -66t0 -92h-187q1 14 0 22.5t-5 22t-17 20.5t-33 7
q-26 0 -48.5 -16.5t-26.5 -41.5q-5 -24 16 -39.5t118 -63.5q90 -44 118 -93.5t15 -118.5q-9 -47 -29.5 -87.5t-55.5 -75t-90.5 -54.5t-126.5 -20q-138 0 -191 71.5t-28 187.5z" />
    <glyph glyph-name="T" unicode="T" horiz-adv-x="499" 
d="M156 0l106 574h-146l31 166h480l-31 -166h-145l-106 -574h-189z" />
    <glyph glyph-name="U" unicode="U" horiz-adv-x="698" 
d="M202 740h189l-83 -447q-10 -61 -3 -89q13 -52 73 -52q63 0 91 48q18 30 29 93l83 447h189l-83 -447q-16 -88 -43.5 -138t-72.5 -89q-93 -80 -222 -80q-139 0 -198 79q-36 49 -42 98.5t10 129.5z" />
    <glyph glyph-name="V" unicode="V" horiz-adv-x="722" 
d="M263 0l-110 740h194l54 -519l247 519h195l-385 -740h-195z" />
    <glyph glyph-name="W" unicode="W" horiz-adv-x="981" 
d="M207 0l-54 740h192l12 -481l198 481h145l20 -483l190 483h191l-333 -740h-166l-24 479l-200 -479h-171z" />
    <glyph glyph-name="X" unicode="X" horiz-adv-x="759" 
d="M11 0l332 394l-165 346h214l88 -211l162 211h213l-291 -350l184 -390h-214l-111 262l-201 -262h-211z" />
    <glyph glyph-name="Y" unicode="Y" horiz-adv-x="647" 
d="M230 0l50 269l-134 471h205l55 -297l166 297h203l-306 -471l-50 -269h-189z" />
    <glyph glyph-name="Z" unicode="Z" horiz-adv-x="499" 
d="M592 587l-314 -421h236l-31 -166h-467l23 124l338 450h-255l31 166h467z" />
    <glyph glyph-name="bracketleft" unicode="[" horiz-adv-x="473" 
d="M386 -80l-25 -134h-306l177 954h306l-25 -134h-146l-127 -686h146z" />
    <glyph glyph-name="backslash" unicode="\" horiz-adv-x="593" 
d="M317 -100l-108 840h184l109 -840h-185z" />
    <glyph glyph-name="bracketright" unicode="]" horiz-adv-x="473" 
d="M32 -214l25 134h146l127 686h-146l25 134h306l-177 -954h-306z" />
    <glyph glyph-name="asciicircum" unicode="^" horiz-adv-x="600" 
d="M112 375l242 365h166l106 -365h-180l-36 223l-119 -223h-179z" />
    <glyph glyph-name="underscore" unicode="_" horiz-adv-x="500" 
d="M477 -125h-500l9 50h500z" />
    <glyph glyph-name="grave" unicode="`" horiz-adv-x="555" 
d="M317 839l219 -128l-64 -97l-227 108z" />
    <glyph glyph-name="a" unicode="a" horiz-adv-x="704" 
d="M746 555l-103 -555h-166l11 60q-29 -39 -78 -59t-101 -20q-127 0 -186.5 86.5t-36.5 210.5q24 132 121 214t212 82q62 0 98.5 -23.5t51.5 -54.5l11 59h166zM251 276v-1q-9 -48 18 -93.5t94 -45.5q77 0 128 62q25 30 36 71q9 39 -1 73q-22 77 -111 77q-66 0 -110 -44.5
t-54 -98.5z" />
    <glyph glyph-name="b" unicode="b" horiz-adv-x="693" 
d="M60 0l137 740h166l-35 -187l-7 -42q70 63 172 63q36 0 71 -10.5t67.5 -32.5t53.5 -56.5t30 -82.5t-3 -111q-13 -72 -48 -130.5t-81.5 -95t-99.5 -55.5t-107 -19q-55 0 -94 23t-52 55l-11 -59h-159zM546 278v1q10 56 -20.5 98t-89.5 42q-63 0 -108.5 -42.5t-55.5 -97.5
q-12 -60 17.5 -101.5t90.5 -41.5t108 42.5t58 99.5z" />
    <glyph glyph-name="c" unicode="c" horiz-adv-x="652" 
d="M491 211h169q-41 -98 -132.5 -163.5t-200.5 -65.5q-126 0 -195.5 86.5t-46.5 210.5q23 123 123 209t224 86q110 0 179.5 -65t71.5 -168h-168q-23 78 -105 78q-57 3 -104 -39q-43 -42 -54 -102q-11 -61 17.5 -101t87.5 -40q82 0 134 74z" />
    <glyph glyph-name="d" unicode="d" horiz-adv-x="698" 
d="M775 740l-137 -740h-158l11 60q-68 -78 -182 -78q-124 0 -185.5 85t-37.5 212q25 135 121 215t208 80q96 0 151 -66l11 60l32 172h166zM252 280v-1q-12 -63 20.5 -102.5t91.5 -39.5q61 0 111 42q51 42 58 103q12 58 -23 98q-31 39 -91 39q-67 0 -112 -42.5t-55 -96.5z
" />
    <glyph glyph-name="e" unicode="e" horiz-adv-x="646" 
d="M650 220h-413q-3 -43 28.5 -70.5t81.5 -27.5q65 0 110 52h170q-57 -92 -139 -142q-79 -50 -167 -50q-120 0 -191 85.5t-49 208.5q22 120 122 209t224 89q127 0 194 -88q79 -106 29 -266zM262 346h248q1 28 -25 58t-83 30t-93.5 -30t-46.5 -58z" />
    <glyph glyph-name="f" unicode="f" horiz-adv-x="314" 
d="M66 0l80 429h-62l23 126h62l4 24q9 47 29 80t44 51t60 28.5t65.5 13t70.5 2.5l-23 -125q-22 0 -34 -1.5t-26.5 -14t-19.5 -37.5l-4 -21h70l-23 -126h-70l-80 -429h-166z" />
    <glyph glyph-name="g" unicode="g" horiz-adv-x="693" 
d="M738 555l-91 -488q-23 -125 -66 -183q-45 -56 -126.5 -93.5t-179.5 -37.5q-69 0 -119 19t-75.5 49.5t-36.5 62t-10 64.5h192q9 -33 44 -48q19 -7 43 -7q34 0 65.5 13t58.5 45t36 77l6 33q-62 -79 -168 -79q-117 0 -183.5 81t-42.5 211q25 136 123 217.5t212 81.5
q108 0 142 -70l10 52h166zM252 280v-1q-12 -64 20 -103t86 -39q60 0 104 38q43 37 57 96q13 65 -16 104q-25 43 -92 43q-55 0 -101.5 -39.5t-57.5 -98.5z" />
    <glyph glyph-name="h" unicode="h" horiz-adv-x="632" 
d="M60 0l137 740h166l-31 -166l-13 -70q56 70 158 70q117 0 151 -79q27 -62 3 -185l-57 -310h-166l56 302q10 53 -2 81q-17 35 -66 35q-59 0 -89 -45q-15 -22 -24 -65l-57 -308h-166z" />
    <glyph glyph-name="i" unicode="i" horiz-adv-x="286" 
d="M174 614l23 126h166l-23 -126h-166zM60 0l103 555h166l-103 -555h-166z" />
    <glyph glyph-name="j" unicode="j" horiz-adv-x="321" 
d="M201 614l23 126h166l-23 -126h-166zM356 555l-101 -543q-10 -54 -23.5 -89t-40 -66.5t-71.5 -46t-111 -14.5h-41l24 126h22q21 0 35 7t21.5 21t11 25.5t6.5 30.5l102 549h166z" />
    <glyph glyph-name="k" unicode="k" horiz-adv-x="591" 
d="M66 0l137 740h166l-71 -386l193 201h197l-254 -244l145 -311h-188l-110 267l-49 -267h-166z" />
    <glyph glyph-name="l" unicode="l" horiz-adv-x="286" 
d="M60 0l137 740h166l-137 -740h-166z" />
    <glyph glyph-name="m" unicode="m" horiz-adv-x="969" 
d="M60 0l103 555h155l-11 -59q14 20 41 39q55 39 128 39q77 0 118 -53q16 -22 24 -46q25 30 49 48q65 51 145 51q93 0 136 -56q31 -40 34.5 -82t-14.5 -133l-56 -303h-166l55 295q9 52 3 78q-9 45 -66 45q-59 0 -88 -46q-17 -24 -25 -69l-56 -303h-166l56 302q8 42 3 69
q-11 47 -65 47q-60 0 -91 -49q-17 -26 -25 -74l-55 -295h-166z" />
    <glyph glyph-name="n" unicode="n" horiz-adv-x="632" 
d="M60 0l103 555h155l-11 -59q14 16 23.5 24.5t30.5 23.5t49.5 22.5t63.5 7.5q53 0 89.5 -17t53 -41t23 -57.5t5 -58.5t-6.5 -53l-64 -347h-166l56 303q5 31 4.5 56.5t-18 42t-52.5 16.5q-56 0 -81 -31.5t-35 -84.5l-56 -302h-166z" />
    <glyph glyph-name="o" unicode="o" horiz-adv-x="666" 
d="M86 278v1q10 52 38 103t71.5 94.5t107 70t136.5 26.5q58 0 105 -17.5t75.5 -47t47 -68t21 -79.5t-3.5 -83q-10 -53 -38.5 -104t-72 -94.5t-107 -70t-136.5 -26.5q-59 0 -105.5 17.5t-75 47t-47 68t-20.5 79.5t4 83zM252 278l-1 -1q-10 -59 21.5 -99t86.5 -40t101.5 40
t57.5 100t-21 100t-87 40t-101 -40t-57 -100z" />
    <glyph glyph-name="p" unicode="p" horiz-adv-x="697" 
d="M26 -185l137 740h156l-11 -61q82 80 190 80q57 0 100.5 -19t67.5 -50t38.5 -71t14 -81t-5.5 -81q-22 -122 -114.5 -206.5t-209.5 -84.5q-101 0 -154 69l-9 -50l-34 -185h-166zM548 277l1 1q10 54 -19.5 97.5t-93.5 43.5q-60 0 -108 -42q-46 -39 -58 -101q-11 -60 22 -99
q33 -41 91 -41q62 0 108.5 42.5t56.5 98.5z" />
    <glyph glyph-name="q" unicode="q" horiz-adv-x="698" 
d="M741 555l-137 -740h-166l34 185l11 57q-75 -75 -184 -75q-116 0 -177 82t-39 203q26 140 122 223.5t214 83.5q108 0 152 -80l11 61h159zM251 274v-1q-10 -49 19 -92.5t95 -43.5q57 0 106 41q47 39 58 98q14 59 -20 101t-93 42q-64 0 -109.5 -43.5t-55.5 -101.5z" />
    <glyph glyph-name="r" unicode="r" horiz-adv-x="363" 
d="M59 0l103 555h156l-12 -62q12 16 21 26t28 25t46 22.5t61 7.5l-31 -167h-6q-64 0 -99 -25.5t-46 -83.5l-55 -298h-166z" />
    <glyph glyph-name="s" unicode="s" horiz-adv-x="499" 
d="M533 399h-163q2 5 0.5 12t-4 13.5t-13 11.5t-27.5 5q-24 0 -37.5 -11.5t-16.5 -25.5q-3 -17 17.5 -30.5t57.5 -24.5q18 -5 27 -8l25.5 -8.5t26 -10t23 -11.5t21 -14l17 -16.5t14 -20t8 -23.5t3 -28.5t-3.5 -33.5q-16 -89 -91 -141.5t-171 -52.5q-35 0 -67.5 8.5t-63.5 28
t-47.5 57.5t-12.5 90h165q-1 -18 5.5 -29.5t18 -15.5t17.5 -5t12 -1q23 0 42.5 12t23.5 31q-1 7 0.5 11.5t-3 9.5t-6.5 8.5t-10.5 8l-14.5 7.5t-18 7.5l-22 8.5l-26.5 10.5l-30.5 12.5q-55 19 -85 55.5t-20 89.5q15 84 87.5 136t161.5 52q32 0 61.5 -7.5t60.5 -25t47.5 -54
t11.5 -88.5z" />
    <glyph glyph-name="t" unicode="t" horiz-adv-x="351" 
d="M93 0l80 429h-82l23 126h82l34 185h166l-34 -185h80l-23 -126h-80l-80 -429h-166z" />
    <glyph glyph-name="u" unicode="u" horiz-adv-x="634" 
d="M677 555l-103 -555h-155l11 59q-13 -15 -23.5 -24.5t-31.5 -24t-50 -22t-64 -7.5q-54 0 -90.5 17t-53 41t-22.5 57.5t-4.5 58.5t6.5 53l64 347h166l-56 -303q-11 -54 2 -84.5t64 -30.5q56 0 82 32t36 84l56 302h166z" />
    <glyph glyph-name="v" unicode="v" horiz-adv-x="592" 
d="M678 555l-303 -555h-159l-96 555h172l43 -346l171 346h172z" />
    <glyph glyph-name="w" unicode="w" horiz-adv-x="850" 
d="M177 0l-67 555h172l21 -345l155 345h140l30 -345l147 345h171l-273 -555h-154l-28 359l-160 -359h-154z" />
    <glyph glyph-name="x" unicode="x" horiz-adv-x="630" 
d="M1 0l266 297l-139 258h199l63 -146l116 146h197l-235 -258l160 -297h-203l-79 172l-145 -172h-200z" />
    <glyph glyph-name="y" unicode="y" horiz-adv-x="574" 
d="M85 -185l127 213l-108 527h177l53 -322l166 322h176l-415 -740h-176z" />
    <glyph glyph-name="z" unicode="z" horiz-adv-x="444" 
d="M15 0l21 114l293 315h-234l23 126h413l-23 -126l-274 -303h217l-23 -126h-413z" />
    <glyph glyph-name="braceleft" unicode="{" horiz-adv-x="554" 
d="M620 740l-23 -126h-55q-36 0 -50.5 -18.5t-19.5 -46.5l-39 -209q-5 -27 -20.5 -47.5t-33 -31.5t-34.5 -18t-29 -9l-11 -3q15 -1 30.5 -5.5t32 -14t24.5 -28t4 -44.5l-40 -212q-12 -65 46 -65h55l-23 -126h-128q-64 0 -102 35t-25 103l39 212q5 25 -13.5 40t-36.5 18
t-36 3l32 172q18 0 37.5 3.5t43.5 20t29 43.5l40 216q12 68 63 103t115 35h128z" />
    <glyph glyph-name="bar" unicode="|" horiz-adv-x="489" 
d="M246 862h136v-1149h-136v1149z" />
    <glyph glyph-name="braceright" unicode="}" horiz-adv-x="554" 
d="M185 614l23 126h128q64 0 102 -35t26 -103l-40 -216q-4 -21 4.5 -35.5t24.5 -20.5t29.5 -8.5t25.5 -2.5l-32 -172q-18 0 -37.5 -3t-42.5 -18t-28 -40l-39 -212q-13 -68 -64 -103t-115 -35h-128l23 126h55q36 0 50.5 18.5t19.5 46.5l40 212q4 20 18.5 37.5t32 27.5
t34.5 17t29 11l12 3q-19 2 -32 5t-31 12.5t-25 32t-1 55.5l39 209q12 65 -46 65h-55z" />
    <glyph glyph-name="asciitilde" unicode="~" horiz-adv-x="600" 
d="M567 377l7 -158q-27 -29 -42.5 -43.5t-44 -29.5t-57.5 -15q-41 0 -96 33q-54 35 -108 35q-49 0 -99 -69l-7 156q65 89 143 89q40 0 106 -32q5 -2 24 -11.5t27 -13t21 -7.5t23 -4q19 0 39 12t31 23t33 35z" />
    <glyph glyph-name="uni00A0" unicode="&#xa0;" horiz-adv-x="309" 
 />
    <glyph glyph-name="exclamdown" unicode="&#xa1;" horiz-adv-x="333" 
d="M152 385l32 170h171l-32 -170h-171zM47 -185l92 496h171l-92 -496h-171z" />
    <glyph glyph-name="cent" unicode="&#xa2;" 
d="M384 31h-137l19 105q-48 17 -80 47.5t-43 63t-15 67t3 59.5q9 47 34 92.5t75 88t115 61.5l19 105h131l-18 -101q79 -23 115.5 -82.5t31.5 -116.5h-172q-16 40 -64 40q-34 0 -64.5 -24.5t-37.5 -60.5q-6 -35 14.5 -59.5t56.5 -24.5q41 0 73 34h176q-23 -63 -79 -117.5
t-134 -71.5z" />
    <glyph glyph-name="sterling" unicode="&#xa3;" 
d="M490 417l-24 -133h-77q25 -39 20 -69q-6 -33 -52 -67h41q33 0 53 10q34 18 42 58q2 12 0 36h161q4 -35 -1 -64q-13 -65 -68 -117q-73 -71 -186 -71h-355l27 148h49q28 0 46.5 3t34.5 15.5t20 35.5q0 14 1 20.5t-4.5 19l-7.5 17t-8 14t-7 11.5h-128l24 133h48
q-20 42 -10 94q17 93 104.5 168.5t206.5 75.5q109 0 171 -67t45 -180h-174q6 81 -70 81q-35 0 -62 -25.5t-33 -57.5q-9 -49 17 -89h156z" />
    <glyph glyph-name="currency" unicode="&#xa4;" 
d="M544 38l-67 83q-74 -44 -154 -44q-77 0 -137 44l-98 -82l-66 80l101 85q-27 61 -14 136q15 79 69 143l-73 86l98 82l71 -88q71 40 147 40q75 0 130 -39l103 86l65 -81l-100 -85q30 -67 16 -144q-13 -73 -63 -136l68 -84zM264 341v-1q-8 -44 17.5 -76.5t70.5 -32.5
q44 0 82 32t46 78q8 45 -17 77.5t-70 32.5t-83 -32.5t-46 -77.5z" />
    <glyph glyph-name="yen" unicode="&#xa5;" 
d="M695 523l-26 -138h-170l-35 -49l-5 -30h196l-26 -139h-197l-31 -167h-186l31 167h-196l26 139h196l5 27l-17 52h-168l26 138h99l-79 217h200l65 -237l155 237h197l-157 -217h97z" />
    <glyph glyph-name="brokenbar" unicode="&#xa6;" horiz-adv-x="489" 
d="M246 776h136v-402h-136v402zM246 201h136v-401h-136v401z" />
    <glyph glyph-name="section" unicode="&#xa7;" horiz-adv-x="670" 
d="M686 548h-163q-6 58 -77 58q-70 0 -80 -53q-2 -15 6.5 -27.5t17.5 -18.5t25 -13l166 -82q22 -11 37 -21t33.5 -29.5t25 -49t-0.5 -66.5q-5 -28 -16.5 -51.5t-30.5 -44t-32 -32t-37 -30.5q39 -70 25 -141q-16 -88 -93 -153t-197 -65q-25 0 -53 4.5t-65 19.5t-64.5 39.5
t-44 69.5t-9.5 103h164q-2 -85 97 -85q46 0 71.5 20.5t30.5 44.5q2 14 -2.5 26t-18 22.5t-23.5 16l-29 15.5l-157 79q-11 5 -16.5 8t-16.5 10t-17.5 12.5t-16.5 15t-15 18.5t-11 21.5t-8 26.5t-2 31.5t4 36.5q14 90 124 161q-21 48 -10 111q12 67 58 113.5t102 65.5t116 19
q109 0 162 -61t41 -145zM523 218l1 1q6 35 -56 65l-170 83q-44 -19 -49 -55q-7 -39 41 -63l185 -93q42 24 48 62z" />
    <glyph glyph-name="dieresis" unicode="&#xa8;" horiz-adv-x="555" 
d="M387 795l-28 -151h-159l28 151h159zM620 795l-28 -151h-159l28 151h159z" />
    <glyph glyph-name="copyright" unicode="&#xa9;" horiz-adv-x="800" 
d="M543 754h1q157 0 247 -113.5t61 -270.5q-30 -159 -163 -271.5t-291 -112.5t-249.5 113t-61.5 271q29 157 161.5 270.5t294.5 113.5zM527 677h-1q-126 0 -229.5 -90t-126.5 -217q-24 -128 47.5 -217.5t195.5 -89.5t228 89.5t128 217.5q23 126 -47 216.5t-195 90.5z
M676 436h-105q-6 68 -72 68q-57 0 -89 -39.5t-42 -92.5q-11 -56 9.5 -93t73.5 -37q70 0 103 87h106q-22 -83 -84 -131t-146 -48q-96 0 -141.5 62.5t-27.5 160.5q18 93 86.5 158t167.5 65q84 0 126 -48.5t35 -111.5z" />
    <glyph glyph-name="ordfeminine" unicode="&#xaa;" horiz-adv-x="385" 
d="M479 744l-53 -286h-99l5 29q-28 -39 -82 -39q-60 0 -92 44t-20 109q14 70 63.5 111.5t107.5 41.5q49 0 66 -39l5 29h99zM237 601v-1q-4 -20 7.5 -39t39.5 -19q37 0 60 33q9 16 10 26q3 17 1 28q-6 31 -49 31q-28 0 -46.5 -18.5t-22.5 -40.5z" />
    <glyph glyph-name="guillemotleft" unicode="&#xab;" horiz-adv-x="422" 
d="M77 284l131 182h116l-131 -182l64 -182h-116zM259 284l131 182h116l-131 -182l64 -182h-116z" />
    <glyph glyph-name="logicalnot" unicode="&#xac;" horiz-adv-x="600" 
d="M128 445h508l-62 -337h-160l33 177h-348z" />
    <glyph glyph-name="uni00AD" unicode="&#xad;" horiz-adv-x="281" 
d="M69 370h281l-31 -163h-281z" />
    <glyph glyph-name="registered" unicode="&#xae;" horiz-adv-x="800" 
d="M543 754h1q157 0 247 -114t61 -270q-30 -159 -163 -271.5t-291 -112.5t-249.5 113t-61.5 271q29 157 161.5 270.5t294.5 113.5zM527 677h-1q-126 0 -229.5 -90t-126.5 -217q-24 -127 48 -217t195 -90q124 0 228 89.5t128 217.5q23 125 -47 216t-195 91zM346 587h180
q67 0 106 -29.5t28 -90.5q-14 -72 -89 -103q25 -11 37 -32.5t6 -66.5q-10 -82 -6 -104h-103q-2 6 5 102q1 13 -0.5 20.5t-6.5 19t-19.5 17t-38.5 5.5h-42l-30 -164h-106zM495 514h-57l-22 -120h51q73 0 85 65q4 19 -1 31t-16.5 17t-19.5 6t-20 1z" />
    <glyph glyph-name="macron" unicode="&#xaf;" horiz-adv-x="555" 
d="M602 784l-23 -126h-359l23 126h359z" />
    <glyph glyph-name="degree" unicode="&#xb0;" horiz-adv-x="400" 
d="M448 569v-1q-10 -59 -59.5 -100.5t-109.5 -41.5t-94 41.5t-23 101.5t60.5 101.5t109.5 41.5t93.5 -41.5t22.5 -101.5zM246 569v-1q-5 -24 9.5 -42t38.5 -18t44.5 18t25.5 43q5 24 -9 42.5t-38 18.5t-45 -18.5t-26 -42.5z" />
    <glyph glyph-name="plusminus" unicode="&#xb1;" horiz-adv-x="600" 
d="M298 420l25 136h160l-25 -136h172l-30 -160h-172l-24 -130h-160l24 130h-172l30 160h172zM33 -82l29 160h504l-29 -160h-504z" />
    <glyph glyph-name="twosuperior" unicode="&#xb2;" horiz-adv-x="407" 
d="M451 402l-20 -106h-341l18 97l155 111q40 29 59.5 50.5t23.5 45.5q8 42 -30 42q-44 0 -57 -68h-123q15 67 49 106q61 69 158 69q84 0 120.5 -34t24.5 -100q-8 -45 -28 -74.5t-61 -60.5l-104 -78h156z" />
    <glyph glyph-name="threesuperior" unicode="&#xb3;" horiz-adv-x="407" 
d="M102 433h129q1 -11 2.5 -17.5t12 -13.5t28.5 -7q48 0 56 43q3 15 -7 26.5t-35 11.5h-55l17 90h24q60 0 68 42q5 33 -26 33q-32 0 -42 -33q-1 -1 -1 -2h-126q8 43 32 73t55 44t56.5 20t49.5 6q68 0 103 -36.5t26 -86.5q-11 -60 -74 -92q36 -13 53 -41.5t10 -64.5
q-10 -58 -71 -99.5t-134 -41.5q-46 0 -84 16t-54 46q-16 27 -13 84z" />
    <glyph glyph-name="acute" unicode="&#xb4;" horiz-adv-x="555" 
d="M284 719l264 129l31 -118l-266 -109z" />
    <glyph glyph-name="mu" unicode="&#xb5;" horiz-adv-x="634" 
d="M17 -190l138 745h166l-51 -274q-11 -63 2 -99q17 -45 69 -45q54 0 87 45q29 38 39 99l51 274h166l-103 -555h-158l13 69q-50 -79 -120 -79q-67 0 -90 54l-9 -48l-34 -186h-166z" />
    <glyph glyph-name="paragraph" unicode="&#xb6;" horiz-adv-x="701" 
d="M186 -103l85 458q-95 0 -144.5 48.5t-32.5 140.5q36 196 290 196h360l-22 -118h-49l-134 -725h-128l134 725h-97l-134 -725h-128z" />
    <glyph glyph-name="periodcentered" unicode="&#xb7;" horiz-adv-x="314" 
d="M307 338l-32 -170h-173l32 170h173z" />
    <glyph glyph-name="cedilla" unicode="&#xb8;" horiz-adv-x="555" 
d="M311 0l-39 -53q11 3 22 3q33 0 54.5 -23.5t13.5 -67.5q-7 -41 -42.5 -72.5t-88.5 -31.5q-11 0 -23 2.5t-30 10.5t-29 29t-10 52h76q5 -22 16 -26q5 -2 12 -2q36 0 43 38q3 15 -5 24.5t-23 9.5t-30 -15l-58 35l58 87h83z" />
    <glyph glyph-name="onesuperior" unicode="&#xb9;" horiz-adv-x="407" 
d="M407 740l-82 -444h-123l63 338h-78l19 106h201z" />
    <glyph glyph-name="ordmasculine" unicode="&#xba;" horiz-adv-x="385" 
d="M148 601l1 1q11 59 60.5 105.5t122.5 46.5t105.5 -47t20.5 -106q-11 -59 -60.5 -106t-122.5 -47t-105.5 47t-21.5 106zM247 601v-1q-4 -24 9 -41t36 -17t43 17t24 42q5 25 -8.5 42t-36.5 17t-42.5 -17t-24.5 -42z" />
    <glyph glyph-name="guillemotright" unicode="&#xbb;" horiz-adv-x="422" 
d="M386 466l65 -182l-132 -182h-116l132 182l-65 182h116zM204 466l65 -182l-132 -182h-116l132 182l-65 182h116z" />
    <glyph glyph-name="onequarter" unicode="&#xbc;" horiz-adv-x="900" 
d="M772 740l-448 -740h-136l447 740h137zM881 444l-50 -273h52l-18 -94h-52l-14 -77h-123l14 77h-209l16 86l266 281h118zM386 740l-82 -444h-123l63 338h-78l19 106h201zM731 288l-100 -117h79z" />
    <glyph glyph-name="onehalf" unicode="&#xbd;" horiz-adv-x="920" 
d="M386 740l-82 -444h-123l63 338h-78l19 106h201zM772 740l-448 -740h-136l447 740h137zM892 106l-20 -106h-341l18 97l156 111q40 29 59 50.5t23 45.5q9 42 -30 42q-25 0 -38.5 -21t-17.5 -47h-123q13 65 48 106q61 69 158 69q84 0 120.5 -34t24.5 -100q-8 -45 -28 -74.5
t-61 -60.5l-104 -78h156z" />
    <glyph glyph-name="threequarters" unicode="&#xbe;" horiz-adv-x="1000" 
d="M840 292l-106 -121h84zM885 740l-448 -740h-136l447 740h137zM989 444l-50 -273h52l-18 -94h-52l-14 -77h-123l14 77h-209l16 86l266 281h118zM121 433h129q1 -11 2.5 -17.5t12 -13.5t28.5 -7q48 0 56 43q3 15 -7 26.5t-35 11.5h-55l17 90h24q60 0 68 42q5 33 -26 33
q-32 0 -42 -33q-1 -1 -1 -2h-126q8 43 32 73t55 44t56.5 20t49.5 6q68 0 103 -36.5t26 -86.5q-11 -60 -74 -92q36 -13 53 -41.5t10 -64.5q-10 -58 -71 -99.5t-134 -41.5q-46 0 -84 16t-54 46q-16 27 -13 84z" />
    <glyph glyph-name="questiondown" unicode="&#xbf;" horiz-adv-x="592" 
d="M302 385l32 170h174l-32 -170h-174zM290 319h174q-10 -49 -40.5 -86t-95.5 -90q-80 -66 -89 -110q-12 -62 47 -62q63 0 82 75q2 7 4 21h183q0 -8 -2 -18q-20 -108 -107 -178.5t-202 -70.5q-110 0 -163 65.5t-38 146.5q8 43 34.5 82t49.5 59.5t66 54.5q54 42 72 64t25 47z
" />
    <glyph glyph-name="Agrave" unicode="&#xc0;" horiz-adv-x="758" 
d="M268 107l-54 -107h-205l430 740h163l147 -740h-207l-15 107h-259zM506 257l-36 258l-127 -258h163zM446 984l219 -128l-64 -97l-227 108z" />
    <glyph glyph-name="Aacute" unicode="&#xc1;" horiz-adv-x="758" 
d="M268 107l-54 -107h-205l430 740h163l147 -740h-207l-15 107h-259zM506 257l-36 258l-127 -258h163zM413 864l264 129l31 -118l-266 -109z" />
    <glyph glyph-name="Acircumflex" unicode="&#xc2;" horiz-adv-x="758" 
d="M268 107l-54 -107h-205l430 740h163l147 -740h-207l-15 107h-259zM506 257l-36 258l-127 -258h163zM612 951l129 -166h-160l-45 57l-67 -57h-162l197 166h108z" />
    <glyph glyph-name="Atilde" unicode="&#xc3;" horiz-adv-x="758" 
d="M268 107l-54 -107h-205l430 740h163l147 -740h-207l-15 107h-259zM506 257l-36 258l-127 -258h163zM704 953l34 -110q-66 -37 -120 -37q-11 0 -78 13q-58 13 -77 13q-38 0 -81 -24l-34 113q68 35 116 35q27 0 79 -12q48 -13 79 -13q48 0 82 22z" />
    <glyph glyph-name="Adieresis" unicode="&#xc4;" horiz-adv-x="758" 
d="M268 107l-54 -107h-205l430 740h163l147 -740h-207l-15 107h-259zM506 257l-36 258l-127 -258h163zM516 940l-28 -151h-159l28 151h159zM749 940l-28 -151h-159l28 151h159z" />
    <glyph glyph-name="Aring" unicode="&#xc5;" horiz-adv-x="758" 
d="M268 107l-54 -107h-205l430 740h163l147 -740h-207l-15 107h-259zM506 257l-36 258l-127 -258h163zM567 1017h1q52 0 82 -37t20 -89t-53.5 -89t-95.5 -37t-82.5 37t-20.5 89t53.5 89t95.5 37zM552 936h-1q-18 0 -32.5 -13t-18.5 -32q-3 -18 7.5 -30.5t28.5 -12.5t33.5 13
t18.5 31q4 18 -6.5 31t-29.5 13z" />
    <glyph glyph-name="AE" unicode="&#xc6;" horiz-adv-x="975" 
d="M-10 0l651 740h421l-31 -166h-228l-21 -115h221l-31 -166h-221l-23 -127h228l-31 -166h-411l23 124h-215l-103 -124h-229zM426 270h138l37 201z" />
    <glyph glyph-name="Ccedilla" unicode="&#xc7;" horiz-adv-x="832" 
d="M442 -13l-30 -40q10 3 22 3q30 0 53 -23.5t15 -67.5q-7 -41 -42.5 -72.5t-88.5 -31.5q-11 0 -23 2.5t-30 10.5t-29 29t-10 52h76q5 -22 16 -26q5 -2 12 -2q36 0 43 38q3 15 -5 24.5t-23 9.5t-30 -15l-58 35l52 78q-140 21 -211 130.5t-45 249.5q18 96 79.5 182.5
t162.5 143.5t217 57q82 0 147.5 -29.5t101.5 -75t54.5 -95t17.5 -95.5h-198q-10 51 -48 90t-107 39q-90 0 -156.5 -65.5t-81.5 -150.5q-17 -88 26 -154t132 -66q41 0 78 15t62 39t38 39.5t23 31.5h198q-55 -126 -167.5 -205.5t-242.5 -84.5z" />
    <glyph glyph-name="Egrave" unicode="&#xc8;" horiz-adv-x="528" 
d="M67 0l137 740h419l-31 -166h-230l-21 -115h223l-31 -166h-223l-23 -127h230l-31 -166h-419zM335 1004l218 -128l-64 -97l-227 108z" />
    <glyph glyph-name="Eacute" unicode="&#xc9;" horiz-adv-x="528" 
d="M67 0l137 740h419l-31 -166h-230l-21 -115h223l-31 -166h-223l-23 -127h230l-31 -166h-419zM302 884l264 129l31 -118l-266 -109z" />
    <glyph glyph-name="Ecircumflex" unicode="&#xca;" horiz-adv-x="528" 
d="M67 0l137 740h419l-31 -166h-230l-21 -115h223l-31 -166h-223l-23 -127h230l-31 -166h-419zM501 971l129 -166h-160l-45 57l-67 -57h-162l197 166h108z" />
    <glyph glyph-name="Edieresis" unicode="&#xcb;" horiz-adv-x="528" 
d="M67 0l137 740h419l-31 -166h-230l-21 -115h223l-31 -166h-223l-23 -127h230l-31 -166h-419zM405 960l-28 -151h-159l28 151h159zM638 960l-28 -151h-159l28 151h159z" />
    <glyph glyph-name="Igrave" unicode="&#xcc;" horiz-adv-x="323" 
d="M67 0l137 740h189l-137 -740h-189zM207 1004l218 -128l-64 -97l-227 108z" />
    <glyph glyph-name="Iacute" unicode="&#xcd;" horiz-adv-x="323" 
d="M67 0l137 740h189l-137 -740h-189zM224 884l264 129l31 -118l-266 -109z" />
    <glyph glyph-name="Icircumflex" unicode="&#xce;" horiz-adv-x="323" 
d="M67 0l137 740h189l-137 -740h-189zM398 971l129 -166h-160l-45 57l-67 -57h-162l197 166h108z" />
    <glyph glyph-name="Idieresis" unicode="&#xcf;" horiz-adv-x="323" 
d="M67 0l137 740h189l-137 -740h-189zM302 960l-28 -151h-159l28 151h159zM535 960l-28 -151h-159l28 151h159z" />
    <glyph glyph-name="Eth" unicode="&#xd0;" horiz-adv-x="742" 
d="M153 462l51 278h249q36 0 57 -1t61 -8t68 -20.5t59.5 -41.5t52.5 -67q50 -93 25 -230q-29 -161 -142 -266.5t-288 -105.5h-279l55 296h-67l31 166h67zM362 574l-20 -112h108l-31 -166h-108l-24 -130h81q98 0 150 56.5t68 146.5q15 81 -10 137q-33 68 -132 68h-82z" />
    <glyph glyph-name="Ntilde" unicode="&#xd1;" horiz-adv-x="759" 
d="M367 740l201 -451l79 451h181l-137 -740h-164l-200 446l-79 -446h-181l137 740h163zM704 953l34 -110q-66 -37 -120 -37q-11 0 -78 13q-58 13 -77 13q-38 0 -81 -24l-34 113q68 35 116 35q27 0 79 -12q48 -13 79 -13q48 0 82 22z" />
    <glyph glyph-name="Ograve" unicode="&#xd2;" horiz-adv-x="851" 
d="M102 361v1q33 175 168 283.5t295 108.5q111 0 191.5 -53t114 -140.5t14.5 -190.5q-30 -158 -162.5 -271t-301.5 -113q-112 0 -192.5 54.5t-112.5 139.5t-14 181zM293 372v-1q-17 -89 27 -154t136 -65q93 0 159 68t80 149q15 82 -25.5 150.5t-134.5 68.5q-93 0 -160 -65.5
t-82 -150.5zM496 1004l218 -128l-64 -97l-227 108z" />
    <glyph glyph-name="Oacute" unicode="&#xd3;" horiz-adv-x="851" 
d="M102 361v1q33 175 168 283.5t295 108.5q111 0 191.5 -53t114 -140.5t14.5 -190.5q-30 -158 -162.5 -271t-301.5 -113q-112 0 -192.5 54.5t-112.5 139.5t-14 181zM293 372v-1q-17 -89 27 -154t136 -65q93 0 159 68t80 149q15 82 -25.5 150.5t-134.5 68.5q-93 0 -160 -65.5
t-82 -150.5zM463 884l264 129l31 -118l-266 -109z" />
    <glyph glyph-name="Ocircumflex" unicode="&#xd4;" horiz-adv-x="851" 
d="M102 361v1q33 175 168 283.5t295 108.5q111 0 191.5 -53t114 -140.5t14.5 -190.5q-30 -158 -162.5 -271t-301.5 -113q-112 0 -192.5 54.5t-112.5 139.5t-14 181zM293 372v-1q-17 -89 27 -154t136 -65q93 0 159 68t80 149q15 82 -25.5 150.5t-134.5 68.5q-93 0 -160 -65.5
t-82 -150.5zM662 971l129 -166h-160l-45 57l-67 -57h-162l197 166h108z" />
    <glyph glyph-name="Otilde" unicode="&#xd5;" horiz-adv-x="851" 
d="M102 361v1q33 175 168 283.5t295 108.5q111 0 191.5 -53t114 -140.5t14.5 -190.5q-30 -158 -162.5 -271t-301.5 -113q-112 0 -192.5 54.5t-112.5 139.5t-14 181zM293 372v-1q-17 -89 27 -154t136 -65q93 0 159 68t80 149q15 82 -25.5 150.5t-134.5 68.5q-93 0 -160 -65.5
t-82 -150.5zM750 953l34 -110q-66 -37 -120 -37q-11 0 -78 13q-58 13 -77 13q-38 0 -81 -24l-34 113q67 35 116 35q27 0 79 -12q48 -13 79 -13q48 0 82 22z" />
    <glyph glyph-name="Odieresis" unicode="&#xd6;" horiz-adv-x="851" 
d="M102 361v1q33 175 168 283.5t295 108.5q111 0 191.5 -53t114 -140.5t14.5 -190.5q-30 -158 -162.5 -271t-301.5 -113q-112 0 -192.5 54.5t-112.5 139.5t-14 181zM293 372v-1q-17 -89 27 -154t136 -65q93 0 159 68t80 149q15 82 -25.5 150.5t-134.5 68.5q-93 0 -160 -65.5
t-82 -150.5zM566 960l-28 -151h-159l28 151h159zM799 960l-28 -151h-159l28 151h159z" />
    <glyph glyph-name="multiply" unicode="&#xd7;" horiz-adv-x="600" 
d="M169 0l-92 113l154 130l-106 130l134 113l106 -130l155 131l93 -114l-155 -130l105 -130l-134 -113l-105 129z" />
    <glyph glyph-name="Oslash" unicode="&#xd8;" horiz-adv-x="851" 
d="M726 719l38 41h182l-117 -126q84 -115 56 -264q-29 -157 -162 -270.5t-302 -113.5q-84 0 -160 35l-40 -41h-182l119 127q-82 112 -54 263q30 162 163 273t299 111q91 0 160 -35zM299 258l296 320q-23 10 -60 10q-95 0 -161 -66.5t-81 -148.5q-12 -65 6 -115zM688 484
l-297 -321q28 -11 64 -11q95 0 160 68.5t80 148.5q12 60 -7 115z" />
    <glyph glyph-name="Ugrave" unicode="&#xd9;" horiz-adv-x="698" 
d="M202 740h189l-83 -447q-10 -61 -3 -89q13 -52 73 -52q63 0 91 48q18 30 29 93l83 447h189l-83 -447q-16 -88 -43.5 -138t-72.5 -89q-93 -80 -222 -80q-139 0 -198 79q-36 49 -42 98.5t10 129.5zM385 1004l218 -128l-64 -97l-227 108z" />
    <glyph glyph-name="Uacute" unicode="&#xda;" horiz-adv-x="698" 
d="M202 740h189l-83 -447q-10 -61 -3 -89q13 -52 73 -52q63 0 91 48q18 30 29 93l83 447h189l-83 -447q-16 -88 -43.5 -138t-72.5 -89q-93 -80 -222 -80q-139 0 -198 79q-36 49 -42 98.5t10 129.5zM422 884l264 129l31 -118l-266 -109z" />
    <glyph glyph-name="Ucircumflex" unicode="&#xdb;" horiz-adv-x="698" 
d="M202 740h189l-83 -447q-10 -61 -3 -89q13 -52 73 -52q63 0 91 48q18 30 29 93l83 447h189l-83 -447q-16 -88 -43.5 -138t-72.5 -89q-93 -80 -222 -80q-139 0 -198 79q-36 49 -42 98.5t10 129.5zM586 971l129 -166h-160l-45 57l-67 -57h-162l197 166h108z" />
    <glyph glyph-name="Udieresis" unicode="&#xdc;" horiz-adv-x="698" 
d="M202 740h189l-83 -447q-10 -61 -3 -89q13 -52 73 -52q63 0 91 48q18 30 29 93l83 447h189l-83 -447q-16 -88 -43.5 -138t-72.5 -89q-93 -80 -222 -80q-139 0 -198 79q-36 49 -42 98.5t10 129.5zM490 960l-28 -151h-159l28 151h159zM723 960l-28 -151h-159l28 151h159z
" />
    <glyph glyph-name="Yacute" unicode="&#xdd;" horiz-adv-x="647" 
d="M230 0l50 269l-134 471h205l55 -297l166 297h203l-306 -471l-50 -269h-189zM396 884l264 129l31 -118l-266 -109z" />
    <glyph glyph-name="Thorn" unicode="&#xde;" horiz-adv-x="636" 
d="M67 0l137 740h189l-18 -97l53 1q96 0 143 -13.5t75 -40.5q74 -73 51 -196q-11 -56 -42.5 -110t-71.5 -84q-47 -34 -96.5 -49t-131.5 -15h-74l-25 -136h-189zM345 478l-33 -176h69q48 0 75 11q48 20 59 78q11 56 -32 76q-24 11 -76 11h-62z" />
    <glyph glyph-name="germandbls" unicode="&#xdf;" horiz-adv-x="694" 
d="M58 0l79 427q17 92 39.5 142t68.5 93q51 47 114.5 72t122.5 25q102 0 157 -63t39 -146q-15 -82 -95 -129q61 -16 97 -69t22 -124q-17 -96 -103.5 -171t-199.5 -75q-35 0 -62.5 7t-47 22t-29 25t-24.5 28l-12 -64h-166zM312 474l-49 -265h93q1 -13 3 -22.5t9 -22.5t22 -20
t38 -7q41 0 71.5 27.5t36.5 62.5q7 40 -9 60q-24 33 -111 33h-65l23 125h34q38 0 65 21t34 55q7 37 -13.5 60t-59.5 23q-62 0 -96 -56q-19 -30 -26 -74z" />
    <glyph glyph-name="agrave" unicode="&#xe0;" horiz-adv-x="704" 
d="M746 555l-103 -555h-166l11 60q-29 -39 -78 -59t-101 -20q-127 0 -186.5 86.5t-36.5 210.5q24 132 121 214t212 82q62 0 98.5 -23.5t51.5 -54.5l11 59h166zM251 276v-1q-9 -48 18 -93.5t94 -45.5q77 0 128 62q25 30 36 71q9 39 -1 73q-22 77 -111 77q-66 0 -110 -44.5
t-54 -98.5zM377 839l219 -128l-64 -97l-227 108z" />
    <glyph glyph-name="aacute" unicode="&#xe1;" horiz-adv-x="704" 
d="M746 555l-103 -555h-166l11 60q-29 -39 -78 -59t-101 -20q-127 0 -186.5 86.5t-36.5 210.5q24 132 121 214t212 82q62 0 98.5 -23.5t51.5 -54.5l11 59h166zM251 276v-1q-9 -48 18 -93.5t94 -45.5q77 0 128 62q25 30 36 71q9 39 -1 73q-22 77 -111 77q-66 0 -110 -44.5
t-54 -98.5zM359 719l264 129l31 -118l-266 -109z" />
    <glyph glyph-name="acircumflex" unicode="&#xe2;" horiz-adv-x="704" 
d="M746 555l-103 -555h-166l11 60q-29 -39 -78 -59t-101 -20q-127 0 -186.5 86.5t-36.5 210.5q24 132 121 214t212 82q62 0 98.5 -23.5t51.5 -54.5l11 59h166zM251 276v-1q-9 -48 18 -93.5t94 -45.5q77 0 128 62q25 30 36 71q9 39 -1 73q-22 77 -111 77q-66 0 -110 -44.5
t-54 -98.5zM543 806l130 -166h-160l-46 57l-66 -57h-162l196 166h108z" />
    <glyph glyph-name="atilde" unicode="&#xe3;" horiz-adv-x="704" 
d="M746 555l-103 -555h-166l11 60q-29 -39 -78 -59t-101 -20q-127 0 -186.5 86.5t-36.5 210.5q24 132 121 214t212 82q62 0 98.5 -23.5t51.5 -54.5l11 59h166zM251 276v-1q-9 -48 18 -93.5t94 -45.5q77 0 128 62q25 30 36 71q9 39 -1 73q-22 77 -111 77q-66 0 -110 -44.5
t-54 -98.5zM636 788l35 -110q-66 -37 -120 -37q-12 0 -79 13q-56 13 -76 13q-37 0 -82 -24l-34 113q70 35 117 35q26 0 78 -12q48 -13 79 -13q48 0 82 22z" />
    <glyph glyph-name="adieresis" unicode="&#xe4;" horiz-adv-x="704" 
d="M746 555l-103 -555h-166l11 60q-29 -39 -78 -59t-101 -20q-127 0 -186.5 86.5t-36.5 210.5q24 132 121 214t212 82q62 0 98.5 -23.5t51.5 -54.5l11 59h166zM251 276v-1q-9 -48 18 -93.5t94 -45.5q77 0 128 62q25 30 36 71q9 39 -1 73q-22 77 -111 77q-66 0 -110 -44.5
t-54 -98.5zM447 795l-28 -151h-159l28 151h159zM680 795l-28 -151h-159l28 151h159z" />
    <glyph glyph-name="aring" unicode="&#xe5;" horiz-adv-x="704" 
d="M746 555l-103 -555h-166l11 60q-29 -39 -78 -59t-101 -20q-127 0 -186.5 86.5t-36.5 210.5q24 132 121 214t212 82q62 0 98.5 -23.5t51.5 -54.5l11 59h166zM251 276v-1q-9 -48 18 -93.5t94 -45.5q77 0 128 62q25 30 36 71q9 39 -1 73q-22 77 -111 77q-66 0 -110 -44.5
t-54 -98.5zM490 852h1q52 0 81.5 -37t20.5 -89q-10 -52 -54 -89t-96 -37t-82 37t-20 89q9 52 53 89t96 37zM475 771h-1q-18 0 -33 -13.5t-18 -31.5q-4 -18 7 -30.5t29 -12.5t33 12.5t19 31.5q3 18 -7 31t-29 13z" />
    <glyph glyph-name="ae" unicode="&#xe6;" horiz-adv-x="1091" 
d="M1097 226h-417q-2 -55 31.5 -79.5t76.5 -24.5q27 0 51.5 9.5t36.5 18.5t29 25h167q-51 -86 -121 -135q-79 -58 -177 -58q-47 0 -83.5 20t-53.5 53l-10 -55h-151l10 55q-63 -73 -173 -73q-53 0 -97 18.5t-70 49t-44 69t-20 79t3 79.5q24 126 120 211.5t221 85.5
q49 0 91 -21t52 -52l10 54h151l-10 -53q68 72 167 72q110 0 176 -80q23 -28 36.5 -65t15.5 -90t-18 -113zM252 281v-1q-12 -63 21 -103t93 -40q57 0 103.5 40.5t57.5 98.5q12 61 -18 102q-32 41 -96 41q-67 0 -110 -47t-51 -91zM704 336h253q-8 97 -106 97q-59 0 -101 -35
q-32 -27 -46 -62z" />
    <glyph glyph-name="ccedilla" unicode="&#xe7;" horiz-adv-x="652" 
d="M346 -16l-27 -37q10 3 22 3q30 0 53 -23.5t15 -67.5q-7 -41 -42.5 -72.5t-88.5 -31.5q-11 0 -23 2.5t-30 10.5t-29 29t-10 52h76q5 -22 16 -26q5 -2 12 -2q36 0 43 38q3 15 -5 24.5t-23 9.5t-30 -15l-58 35l50 75q-100 21 -151 102.5t-31 188.5q23 123 123 209t224 86
q110 0 179.5 -65t71.5 -168h-168q-26 74 -106 74q-56 3 -103 -38q-43 -39 -54 -99q-11 -61 17.5 -101t87.5 -40q82 0 134 74h169q-39 -94 -125 -158t-189 -69z" />
    <glyph glyph-name="egrave" unicode="&#xe8;" horiz-adv-x="646" 
d="M650 220h-413q-3 -43 28.5 -70.5t81.5 -27.5q65 0 110 52h170q-57 -92 -139 -142q-79 -50 -167 -50q-120 0 -191 85.5t-49 208.5q22 120 122 209t224 89q127 0 194 -88q79 -106 29 -266zM262 346h248q1 28 -25 58t-83 30t-93.5 -30t-46.5 -58zM363 839l219 -128l-64 -97
l-227 108z" />
    <glyph glyph-name="eacute" unicode="&#xe9;" horiz-adv-x="646" 
d="M650 220h-413q-3 -43 28.5 -70.5t81.5 -27.5q65 0 110 52h170q-57 -92 -139 -142q-79 -50 -167 -50q-120 0 -191 85.5t-49 208.5q22 120 122 209t224 89q127 0 194 -88q79 -106 29 -266zM262 346h248q1 28 -25 58t-83 30t-93.5 -30t-46.5 -58zM330 719l264 129l31 -118
l-266 -109z" />
    <glyph glyph-name="ecircumflex" unicode="&#xea;" horiz-adv-x="646" 
d="M650 220h-413q-3 -43 28.5 -70.5t81.5 -27.5q65 0 110 52h170q-57 -92 -139 -142q-79 -50 -167 -50q-120 0 -191 85.5t-49 208.5q22 120 122 209t224 89q127 0 194 -88q79 -106 29 -266zM262 346h248q1 28 -25 58t-83 30t-93.5 -30t-46.5 -58zM529 806l130 -166h-160
l-46 57l-66 -57h-162l196 166h108z" />
    <glyph glyph-name="edieresis" unicode="&#xeb;" horiz-adv-x="646" 
d="M650 220h-413q-3 -43 28.5 -70.5t81.5 -27.5q65 0 110 52h170q-57 -92 -139 -142q-79 -50 -167 -50q-120 0 -191 85.5t-49 208.5q22 120 122 209t224 89q127 0 194 -88q79 -106 29 -266zM262 346h248q1 28 -25 58t-83 30t-93.5 -30t-46.5 -58zM433 795l-28 -151h-159
l28 151h159zM666 795l-28 -151h-159l28 151h159z" />
    <glyph glyph-name="igrave" unicode="&#xec;" horiz-adv-x="286" 
d="M60 0l103 555h166l-103 -555h-166zM162 839l219 -128l-64 -97l-227 108z" />
    <glyph glyph-name="iacute" unicode="&#xed;" horiz-adv-x="286" 
d="M60 0l103 555h166l-103 -555h-166zM169 719l264 129l31 -118l-266 -109z" />
    <glyph glyph-name="icircumflex" unicode="&#xee;" horiz-adv-x="286" 
d="M60 0l103 555h166l-103 -555h-166zM349 806l130 -166h-160l-46 57l-66 -57h-162l196 166h108z" />
    <glyph glyph-name="idieresis" unicode="&#xef;" horiz-adv-x="286" 
d="M60 0l103 555h166l-103 -555h-166zM253 795l-28 -151h-159l28 151h159zM486 795l-28 -151h-159l28 151h159z" />
    <glyph glyph-name="eth" unicode="&#xf0;" horiz-adv-x="666" 
d="M446 600l-244 -50l19 105l121 20q-17 11 -85 35l178 46q35 -13 87 -44l218 44l-19 -105l-103 -16q41 -47 63 -112q31 -92 9 -208q-27 -145 -126 -238.5t-234 -93.5q-127 0 -198 81.5t-47 211.5q25 134 116.5 211.5t193.5 77.5q68 0 109 -44q-5 18 -14 32q-19 31 -44 47z
M252 279v-1q-11 -56 16.5 -98t92.5 -42t106 44.5t51 96.5q9 53 -16 97t-86 44q-69 0 -111.5 -42.5t-52.5 -98.5z" />
    <glyph glyph-name="ntilde" unicode="&#xf1;" horiz-adv-x="632" 
d="M60 0l103 555h155l-11 -59q14 16 23.5 24.5t30.5 23.5t49.5 22.5t63.5 7.5q53 0 89.5 -17t53 -41t23 -57.5t5 -58.5t-6.5 -53l-64 -347h-166l56 303q5 31 4.5 56.5t-18 42t-52.5 16.5q-56 0 -81 -31.5t-35 -84.5l-56 -302h-166zM610 788l35 -110q-66 -37 -120 -37
q-12 0 -79 13q-56 13 -76 13q-37 0 -82 -24l-34 113q70 35 117 35q26 0 78 -12q48 -13 79 -13q48 0 82 22z" />
    <glyph glyph-name="ograve" unicode="&#xf2;" horiz-adv-x="666" 
d="M86 278v1q10 52 38 103t71.5 94.5t107 70t136.5 26.5q58 0 105 -17.5t75.5 -47t47 -68t21 -79.5t-3.5 -83q-10 -53 -38.5 -104t-72 -94.5t-107 -70t-136.5 -26.5q-59 0 -105.5 17.5t-75 47t-47 68t-20.5 79.5t4 83zM252 278l-1 -1q-10 -59 21.5 -99t86.5 -40t101.5 40
t57.5 100t-21 100t-87 40t-101 -40t-57 -100zM373 839l219 -128l-64 -97l-227 108z" />
    <glyph glyph-name="oacute" unicode="&#xf3;" horiz-adv-x="666" 
d="M86 278v1q10 52 38 103t71.5 94.5t107 70t136.5 26.5q58 0 105 -17.5t75.5 -47t47 -68t21 -79.5t-3.5 -83q-10 -53 -38.5 -104t-72 -94.5t-107 -70t-136.5 -26.5q-59 0 -105.5 17.5t-75 47t-47 68t-20.5 79.5t4 83zM252 278l-1 -1q-10 -59 21.5 -99t86.5 -40t101.5 40
t57.5 100t-21 100t-87 40t-101 -40t-57 -100zM340 719l264 129l31 -118l-266 -109z" />
    <glyph glyph-name="ocircumflex" unicode="&#xf4;" horiz-adv-x="666" 
d="M86 278v1q10 52 38 103t71.5 94.5t107 70t136.5 26.5q58 0 105 -17.5t75.5 -47t47 -68t21 -79.5t-3.5 -83q-10 -53 -38.5 -104t-72 -94.5t-107 -70t-136.5 -26.5q-59 0 -105.5 17.5t-75 47t-47 68t-20.5 79.5t4 83zM252 278l-1 -1q-10 -59 21.5 -99t86.5 -40t101.5 40
t57.5 100t-21 100t-87 40t-101 -40t-57 -100zM539 806l130 -166h-160l-46 57l-66 -57h-162l196 166h108z" />
    <glyph glyph-name="otilde" unicode="&#xf5;" horiz-adv-x="666" 
d="M86 278v1q10 52 38 103t71.5 94.5t107 70t136.5 26.5q58 0 105 -17.5t75.5 -47t47 -68t21 -79.5t-3.5 -83q-10 -53 -38.5 -104t-72 -94.5t-107 -70t-136.5 -26.5q-59 0 -105.5 17.5t-75 47t-47 68t-20.5 79.5t4 83zM252 278l-1 -1q-10 -59 21.5 -99t86.5 -40t101.5 40
t57.5 100t-21 100t-87 40t-101 -40t-57 -100zM627 788l35 -110q-66 -37 -120 -37q-12 0 -79 13q-56 13 -76 13q-37 0 -82 -24l-34 113q70 35 117 35q26 0 78 -12q48 -13 79 -13q48 0 82 22z" />
    <glyph glyph-name="odieresis" unicode="&#xf6;" horiz-adv-x="666" 
d="M86 278v1q10 52 38 103t71.5 94.5t107 70t136.5 26.5q58 0 105 -17.5t75.5 -47t47 -68t21 -79.5t-3.5 -83q-10 -53 -38.5 -104t-72 -94.5t-107 -70t-136.5 -26.5q-59 0 -105.5 17.5t-75 47t-47 68t-20.5 79.5t4 83zM252 278l-1 -1q-10 -59 21.5 -99t86.5 -40t101.5 40
t57.5 100t-21 100t-87 40t-101 -40t-57 -100zM443 795l-28 -151h-159l28 151h159zM676 795l-28 -151h-159l28 151h159z" />
    <glyph glyph-name="divide" unicode="&#xf7;" horiz-adv-x="600" 
d="M482 563l-29 -160h-157l29 160h157zM80 173l30 160h504l-30 -160h-504zM397 103l-30 -160h-157l30 160h157z" />
    <glyph glyph-name="oslash" unicode="&#xf8;" horiz-adv-x="666" 
d="M591 588h164l-106 -115q55 -86 35 -195q-10 -54 -39 -105.5t-72.5 -94.5t-107 -69.5t-134.5 -26.5q-68 0 -117 23l-36 -38h-164l105 112q-55 80 -34 197q10 54 38.5 105.5t72 95t107.5 70t137 26.5q67 0 117 -23zM253 216l185 199q-18 3 -27 3q-56 0 -102.5 -40.5
t-56.5 -99.5q-7 -34 1 -62zM516 336l-182 -196q18 -3 24 -3q60 0 104.5 42t55.5 99q4 26 -2 58z" />
    <glyph glyph-name="ugrave" unicode="&#xf9;" horiz-adv-x="634" 
d="M677 555l-103 -555h-155l11 59q-13 -15 -23.5 -24.5t-31.5 -24t-50 -22t-64 -7.5q-54 0 -90.5 17t-53 41t-22.5 57.5t-4.5 58.5t6.5 53l64 347h166l-56 -303q-11 -54 2 -84.5t64 -30.5q56 0 82 32t36 84l56 302h166zM322 839l219 -128l-64 -97l-227 108z" />
    <glyph glyph-name="uacute" unicode="&#xfa;" horiz-adv-x="634" 
d="M677 555l-103 -555h-155l11 59q-13 -15 -23.5 -24.5t-31.5 -24t-50 -22t-64 -7.5q-54 0 -90.5 17t-53 41t-22.5 57.5t-4.5 58.5t6.5 53l64 347h166l-56 -303q-11 -54 2 -84.5t64 -30.5q56 0 82 32t36 84l56 302h166zM359 719l264 129l31 -118l-266 -109z" />
    <glyph glyph-name="ucircumflex" unicode="&#xfb;" horiz-adv-x="634" 
d="M677 555l-103 -555h-155l11 59q-13 -15 -23.5 -24.5t-31.5 -24t-50 -22t-64 -7.5q-54 0 -90.5 17t-53 41t-22.5 57.5t-4.5 58.5t6.5 53l64 347h166l-56 -303q-11 -54 2 -84.5t64 -30.5q56 0 82 32t36 84l56 302h166zM523 806l130 -166h-160l-46 57l-66 -57h-162l196 166
h108z" />
    <glyph glyph-name="udieresis" unicode="&#xfc;" horiz-adv-x="634" 
d="M677 555l-103 -555h-155l11 59q-13 -15 -23.5 -24.5t-31.5 -24t-50 -22t-64 -7.5q-54 0 -90.5 17t-53 41t-22.5 57.5t-4.5 58.5t6.5 53l64 347h166l-56 -303q-11 -54 2 -84.5t64 -30.5q56 0 82 32t36 84l56 302h166zM427 795l-28 -151h-159l28 151h159zM660 795l-28 -151
h-159l28 151h159z" />
    <glyph glyph-name="yacute" unicode="&#xfd;" horiz-adv-x="574" 
d="M85 -185l127 213l-108 527h177l53 -322l166 322h176l-415 -740h-176zM329 719l264 129l31 -118l-266 -109z" />
    <glyph glyph-name="thorn" unicode="&#xfe;" horiz-adv-x="695" 
d="M25 -185l171 925h166l-33 -178l-10 -56q24 19 40.5 30t54.5 24t82 13q57 0 101 -19t68 -50t39 -70.5t14.5 -80.5t-5.5 -81q-22 -122 -115 -206.5t-210 -84.5q-47 0 -83 15t-46.5 25.5t-24.5 28.5l-13 -70l-30 -165h-166zM548 277l1 1q10 54 -20 97t-95 43q-64 0 -112 -46
q-44 -41 -54 -95q-10 -56 19 -97q34 -44 95 -44q63 0 109.5 42.5t56.5 98.5z" />
    <glyph glyph-name="ydieresis" unicode="&#xff;" horiz-adv-x="574" 
d="M85 -185l127 213l-108 527h177l53 -322l166 322h176l-415 -740h-176zM397 795l-28 -151h-159l28 151h159zM630 795l-28 -151h-159l28 151h159z" />
    <glyph glyph-name="dotlessi" unicode="&#x131;" horiz-adv-x="286" 
d="M60 0l103 555h166l-103 -555h-166z" />
    <glyph glyph-name="Lslash" unicode="&#x141;" horiz-adv-x="487" 
d="M36 158l35 188l74 47l64 347h189l-39 -211l123 78l-34 -188l-124 -78l-32 -175h219l-31 -166h-408l38 205z" />
    <glyph glyph-name="lslash" unicode="&#x142;" horiz-adv-x="342" 
d="M128 226l-68 -39l32 172l68 39l63 342h166l-43 -235l72 42l-32 -172l-72 -42l-62 -333h-166z" />
    <glyph glyph-name="OE" unicode="&#x152;" horiz-adv-x="1085" 
d="M911 574l-21 -115h222l-31 -166h-222l-23 -127h230l-31 -166h-412l5 25l4 24q-99 -63 -216 -63q-163 0 -252.5 113t-60.5 269q14 73 53.5 142t98 123.5t139.5 87.5t170 33q51 0 93 -12.5t57 -22.5t37 -28l5 25l4 24h412l-31 -166h-230zM292 368v-1q-9 -47 1.5 -94
t50.5 -84t106 -37q94 0 159.5 66t81.5 155q17 91 -26.5 153t-132.5 62q-95 0 -159.5 -67t-80.5 -153z" />
    <glyph glyph-name="oe" unicode="&#x153;" horiz-adv-x="1076" 
d="M1082 226h-416q-4 -45 24 -74.5t81 -29.5q27 0 50.5 8.5t36 17.5t30.5 25h170q-42 -69 -108 -121q-94 -71 -202 -71q-136 0 -189 100q-97 -100 -235 -100q-122 0 -192 85t-47 210q23 122 122 210t235 88q65 0 117.5 -27.5t73.5 -67.5q36 40 98 67.5t127 27.5
q122 0 191 -87q41 -51 50.5 -121t-17.5 -140zM251 277v-1q-11 -57 21 -98.5t88 -41.5q61 0 105 44.5t54 97.5q10 56 -20 98.5t-87 42.5q-52 0 -100.5 -38.5t-60.5 -103.5zM691 337h250q-1 45 -31 70.5t-76 25.5t-86 -26t-57 -70z" />
    <glyph glyph-name="Scaron" unicode="&#x160;" horiz-adv-x="573" 
d="M70 245h188q-10 -56 11 -78.5t48 -22.5q32 0 56 22t29 49t-16.5 43t-101.5 52q-6 3 -9 4l-36.5 17t-40.5 26.5t-40.5 40t-23 55t-1.5 73.5q20 105 110.5 166.5t191.5 61.5q33 0 64 -6.5t61 -23.5t51 -42t30 -66t0 -92h-187q1 14 0 22.5t-5 22t-17 20.5t-33 7
q-26 0 -48.5 -16.5t-26.5 -41.5q-5 -24 16 -39.5t118 -63.5q90 -44 118 -93.5t15 -118.5q-9 -47 -29.5 -87.5t-55.5 -75t-90.5 -54.5t-126.5 -20q-138 0 -191 71.5t-28 187.5zM248 964h161l45 -57l67 57h161l-196 -166h-108z" />
    <glyph glyph-name="scaron" unicode="&#x161;" horiz-adv-x="499" 
d="M533 399h-163q2 5 0.5 12t-4 13.5t-13 11.5t-27.5 5q-24 0 -37.5 -11.5t-16.5 -25.5q-3 -17 17.5 -30.5t57.5 -24.5q18 -5 27 -8l25.5 -8.5t26 -10t23 -11.5t21 -14l17 -16.5t14 -20t8 -23.5t3 -28.5t-3.5 -33.5q-16 -89 -91 -141.5t-171 -52.5q-35 0 -67.5 8.5t-63.5 28
t-47.5 57.5t-12.5 90h165q-1 -18 5.5 -29.5t18 -15.5t17.5 -5t12 -1q23 0 42.5 12t23.5 31q-1 7 0.5 11.5t-3 9.5t-6.5 8.5t-10.5 8l-14.5 7.5t-18 7.5l-22 8.5l-26.5 10.5l-30.5 12.5q-55 19 -85 55.5t-20 89.5q15 84 87.5 136t161.5 52q32 0 61.5 -7.5t60.5 -25t47.5 -54
t11.5 -88.5zM180 799h161l46 -57l66 57h161l-196 -166h-108z" />
    <glyph glyph-name="Ydieresis" unicode="&#x178;" horiz-adv-x="647" 
d="M230 0l50 269l-134 471h205l55 -297l166 297h203l-306 -471l-50 -269h-189zM464 960l-28 -151h-159l28 151h159zM697 960l-28 -151h-159l28 151h159z" />
    <glyph glyph-name="Zcaron" unicode="&#x17d;" horiz-adv-x="499" 
d="M592 587l-314 -421h236l-31 -166h-467l23 124l338 450h-255l31 166h467zM214 954h161l45 -57l67 57h161l-196 -166h-108z" />
    <glyph glyph-name="zcaron" unicode="&#x17e;" horiz-adv-x="444" 
d="M15 0l21 114l293 315h-234l23 126h413l-23 -126l-274 -303h217l-23 -126h-413zM171 794h161l46 -57l66 57h161l-196 -166h-108z" />
    <glyph glyph-name="florin" unicode="&#x192;" 
d="M522 527h73l-23 -125h-95l-113 -314q-19 -53 -29.5 -78.5t-31.5 -60t-47 -61.5q-91 -92 -222 -92q-36 0 -53 6l54 148q16 -2 17 -2q58 0 85.5 28.5t49.5 89.5l120 336h-72l23 125h94q32 100 104 163q74 64 179 64q28 0 41 -3l-46 -133q-17 0 -29 -3q-32 -7 -52 -32
q-11 -14 -27 -56z" />
    <glyph glyph-name="circumflex" unicode="&#x2c6;" horiz-adv-x="555" 
d="M483 806l130 -166h-160l-46 57l-66 -57h-162l196 166h108z" />
    <glyph glyph-name="caron" unicode="&#x2c7;" horiz-adv-x="555" 
d="M208 799h161l46 -57l66 57h161l-196 -166h-108z" />
    <glyph glyph-name="uni02C9" unicode="&#x2c9;" horiz-adv-x="555" 
d="M602 784l-23 -126h-359l23 126h359z" />
    <glyph glyph-name="breve" unicode="&#x2d8;" horiz-adv-x="555" 
d="M217 788h123q13 -21 32 -28q17 -7 50 -7q56 0 84 35h123q-13 -51 -53 -87t-86.5 -51t-94.5 -15q-86 0 -135.5 41.5t-42.5 111.5z" />
    <glyph glyph-name="dotaccent" unicode="&#x2d9;" horiz-adv-x="555" 
d="M504 795l-28 -151h-159l28 151h159z" />
    <glyph glyph-name="ring" unicode="&#x2da;" horiz-adv-x="555" 
d="M435 852h1q52 0 81.5 -37t20.5 -89q-10 -52 -54 -89t-96 -37t-82 37t-20 89q9 52 53 89t96 37zM420 771h-1q-18 0 -33 -13.5t-18 -31.5q-4 -18 7 -30.5t29 -12.5t33 12.5t19 31.5q3 18 -7 31t-29 13z" />
    <glyph glyph-name="ogonek" unicode="&#x2db;" horiz-adv-x="555" 
d="M258 0h84q-63 -31 -70 -68q-3 -19 9 -33.5t31 -14.5q16 0 49 12l-16 -86q-54 -16 -89 -16q-57 0 -83 28t-18 69q5 27 27 51.5t76 57.5z" />
    <glyph glyph-name="tilde" unicode="&#x2dc;" horiz-adv-x="555" 
d="M571 788l35 -110q-66 -37 -120 -37q-12 0 -79 13q-56 13 -76 13q-37 0 -82 -24l-34 113q70 35 117 35q26 0 78 -12q48 -13 79 -13q48 0 82 22z" />
    <glyph glyph-name="hungarumlaut" unicode="&#x2dd;" horiz-adv-x="555" 
d="M209 700l172 150l77 -95l-183 -136zM449 700l172 150l77 -95l-183 -136z" />
    <glyph glyph-name="uni03A9" unicode="&#x3a9;" horiz-adv-x="777" 
d="M202 135l1 3q-45 49 -68.5 120t-7.5 159q26 137 138.5 236t263.5 99q64 0 116 -20t84 -53t53 -75.5t24 -88.5t-3 -91q-17 -89 -67.5 -163t-115.5 -123l-1 -3h145l-25 -135h-308l19 100q133 75 173 288q18 98 -12.5 161.5t-106.5 63.5q-75 0 -133 -64t-77 -168
q-20 -105 0.5 -178.5t67.5 -102.5l-19 -100h-308l25 135h142z" />
    <glyph glyph-name="uni03BC" unicode="&#x3bc;" horiz-adv-x="634" 
d="M17 -190l138 745h166l-51 -274q-11 -63 2 -99q17 -45 69 -45q54 0 87 45q29 38 39 99l51 274h166l-103 -555h-158l13 69q-50 -79 -120 -79q-67 0 -90 54l-9 -48l-34 -186h-166z" />
    <glyph glyph-name="pi" unicode="&#x3c0;" horiz-adv-x="678" 
d="M731 418h-71l-47 -256q-19 -98 -17 -162h-165q-13 35 10 155l48 263h-125q-20 -91 -60.5 -216.5t-80.5 -201.5h-166q43 95 84 218t55 200q-62 0 -101 -9l2 110q55 40 200 40h474z" />
    <glyph glyph-name="endash" unicode="&#x2013;" horiz-adv-x="500" 
d="M104 370h430l-31 -163h-430z" />
    <glyph glyph-name="emdash" unicode="&#x2014;" horiz-adv-x="1000" 
d="M104 370h930l-31 -163h-930z" />
    <glyph glyph-name="quoteleft" unicode="&#x2018;" horiz-adv-x="314" 
d="M365 740l38 -250h-120l-60 250h142z" />
    <glyph glyph-name="quoteright" unicode="&#x2019;" horiz-adv-x="314" 
d="M93 490l130 250h142l-152 -250h-120z" />
    <glyph glyph-name="quotesinglbase" unicode="&#x201a;" horiz-adv-x="314" 
d="M-17 -102l130 250h142l-152 -250h-120z" />
    <glyph glyph-name="quotedblleft" unicode="&#x201c;" horiz-adv-x="555" 
d="M402 740l38 -250h-120l-60 250h142zM587 740l38 -250h-120l-60 250h142z" />
    <glyph glyph-name="quotedblright" unicode="&#x201d;" horiz-adv-x="555" 
d="M112 490l130 250h142l-152 -250h-120zM297 490l130 250h142l-152 -250h-120z" />
    <glyph glyph-name="quotedblbase" unicode="&#x201e;" horiz-adv-x="555" 
d="M2 -102l130 250h142l-152 -250h-120zM187 -102l130 250h142l-152 -250h-120z" />
    <glyph glyph-name="dagger" unicode="&#x2020;" horiz-adv-x="670" 
d="M555 740l-33 -177h154l-26 -140h-154l-123 -667h-165l123 667h-155l26 140h155l33 177h165z" />
    <glyph glyph-name="daggerdbl" unicode="&#x2021;" horiz-adv-x="670" 
d="M555 740l-27 -147h154l-26 -140h-154l-60 -326h154l-26 -140h-154l-43 -231h-165l43 231h-155l26 140h155l60 326h-155l26 140h155l27 147h165z" />
    <glyph glyph-name="bullet" unicode="&#x2022;" horiz-adv-x="739" 
d="M470 532h1q62 0 97.5 -45.5t23.5 -109.5t-65.5 -109.5t-115.5 -45.5q-63 0 -99.5 46t-24.5 109q11 63 64 109t119 46z" />
    <glyph glyph-name="ellipsis" unicode="&#x2026;" horiz-adv-x="1000" 
d="M81 0l32 170h173l-32 -170h-173zM414 0l32 170h173l-32 -170h-173zM747 0l32 170h173l-32 -170h-173z" />
    <glyph glyph-name="perthousand" unicode="&#x2030;" horiz-adv-x="1258" 
d="M142 574l1 1q13 74 76 127t137 53q75 0 117.5 -53t28.5 -128q-13 -75 -76 -127.5t-137 -52.5t-117 52.5t-30 127.5zM253 574v-1q-5 -27 12 -47.5t45 -20.5t52 20.5t30 49.5q5 29 -11.5 49t-45.5 20t-52.5 -20t-29.5 -50zM492 166v1q14 74 76.5 127t137.5 53q74 0 117 -53
t30 -128q-14 -75 -77.5 -128t-136.5 -53q-74 0 -117.5 52.5t-29.5 128.5zM603 166v-1q-5 -28 11.5 -48.5t45.5 -20.5q28 0 52.5 20.5t29.5 49.5q5 30 -11.5 50t-44.5 20q-30 0 -54 -20.5t-29 -49.5zM892 166v1q14 74 76.5 127t137.5 53q74 0 117 -53t30 -128
q-14 -75 -77.5 -128t-136.5 -53q-74 0 -117.5 52.5t-29.5 128.5zM1003 166v-1q-5 -28 11.5 -48.5t45.5 -20.5q28 0 52.5 20.5t29.5 49.5q5 30 -11.5 50t-44.5 20q-30 0 -54 -20.5t-29 -49.5zM775 740l-444 -740h-115l443 740h116z" />
    <glyph glyph-name="guilsinglleft" unicode="&#x2039;" horiz-adv-x="222" 
d="M61 284l131 182h116l-131 -182l64 -182h-116z" />
    <glyph glyph-name="guilsinglright" unicode="&#x203a;" horiz-adv-x="222" 
d="M202 466l65 -182l-132 -182h-116l132 182l-65 182h116z" />
    <glyph glyph-name="fraction" unicode="&#x2044;" horiz-adv-x="211" 
d="M-118 0l447 740h137l-448 -740h-136z" />
    <glyph glyph-name="Euro" unicode="&#x20ac;" 
d="M645 212q-43 -132 -133 -187q-63 -39 -147 -39q-108 0 -157.5 63.5t-49.5 172.5q0 5 0.5 15t0.5 16h-91l34 96h66q0 3 2 10t2 11q1 6 5 23h-93l34 96h86q42 118 119 191.5t188 73.5q100 0 146 -59.5t46 -145.5v-17h-164q-3 24 -19 40t-40 16q-30 0 -54.5 -20t-45.5 -79
h203l-34 -96h-196q-2 -7 -4 -23q-1 -4 -2 -11t-2 -10h190l-34 -96h-165q1 -101 66 -101q51 0 79 60h164z" />
    <glyph glyph-name="afii61289" unicode="&#x2113;" horiz-adv-x="585" 
d="M539 218l54 -71q-111 -158 -272 -158q-93 0 -134.5 44t-41.5 117q0 2 0.5 5t0.5 5q-10 -6 -29.5 -19t-29.5 -19l-25 86q15 11 50.5 35t53.5 38l46 249q25 138 96.5 210t166.5 72q82 0 113.5 -55t15.5 -142q-16 -88 -86 -174.5t-192 -183.5l-8 -45q-6 -40 13 -64t56 -24
q74 0 152 94zM378 538l-25 -132q59 55 98.5 113t47.5 102q14 74 -35 74q-57 0 -86 -157z" />
    <glyph glyph-name="trademark" unicode="&#x2122;" horiz-adv-x="990" 
d="M441 296l82 444h159l38 -277l137 277h159l-82 -444h-117l56 301l-143 -301h-84l-33 299l-55 -299h-117zM167 296l63 338h-91l19 106h307l-19 -106h-90l-63 -338h-126z" />
    <glyph glyph-name="Omega" unicode="&#x2126;" horiz-adv-x="777" 
d="M202 135l1 3q-45 49 -68.5 120t-7.5 159q26 137 138.5 236t263.5 99q64 0 116 -20t84 -53t53 -75.5t24 -88.5t-3 -91q-17 -89 -67.5 -163t-115.5 -123l-1 -3h145l-25 -135h-308l19 100q133 75 173 288q18 98 -12.5 161.5t-106.5 63.5q-75 0 -133 -64t-77 -168
q-20 -105 0.5 -178.5t67.5 -102.5l-19 -100h-308l25 135h142z" />
    <glyph glyph-name="estimated" unicode="&#x212e;" horiz-adv-x="1065" 
d="M1029 359h-691q-6 0 -6 -4v-209q0 -11 9 -24q111 -114 262 -114q81 0 152 34t123 93h61q-58 -68 -147 -108t-190 -40q-177 0 -301.5 112t-124.5 271t124.5 271.5t301.5 112.5t302 -112.5t125 -271.5v-11zM872 387v210q0 15 -10 25q-111 109 -259 109q-149 0 -260 -113
q-11 -11 -11 -26v-205q0 -7 6 -7h529q5 0 5 7z" />
    <glyph glyph-name="partialdiff" unicode="&#x2202;" horiz-adv-x="646" 
d="M232 650l-22 124q101 63 224 63q136 0 206.5 -108t35.5 -298q-37 -202 -146 -321t-257 -119q-47 0 -84 16t-59 42t-36 59.5t-15 68.5t4 69q23 126 105 203.5t186 77.5q56 0 91 -25.5t47 -53.5h1q3 10 6 29q16 87 -19 155t-114 68q-78 0 -154 -50zM316 129h1q48 0 92 59
t65 129q-2 26 -25.5 51.5t-63.5 25.5q-48 0 -86.5 -46t-50.5 -108q-8 -47 11 -79t57 -32z" />
    <glyph glyph-name="Delta" unicode="&#x2206;" horiz-adv-x="726" 
d="M25 0l17 92l363 662h204l108 -659l-18 -95h-674zM228 134h312l-50 265q-2 26 -10.5 93t-10.5 90h-3q-6 -13 -36.5 -74t-45.5 -94z" />
    <glyph glyph-name="product" unicode="&#x220f;" horiz-adv-x="938" 
d="M914 587h-108v-689h-170v689h-197v-689h-170v689h-108v153h753v-153z" />
    <glyph glyph-name="summation" unicode="&#x2211;" horiz-adv-x="752" 
d="M735 -102h-573v105l246 316l-238 303v118h546v-144h-316v-4l201 -246l-226 -289v-4h360v-155z" />
    <glyph glyph-name="minus" unicode="&#x2212;" horiz-adv-x="600" 
d="M80 173l30 160h504l-30 -160h-504z" />
    <glyph glyph-name="uni2215" unicode="&#x2215;" horiz-adv-x="211" 
d="M-118 0l447 740h137l-448 -740h-136z" />
    <glyph glyph-name="uni2219" unicode="&#x2219;" horiz-adv-x="314" 
d="M307 338l-32 -170h-173l32 170h173z" />
    <glyph glyph-name="radical" unicode="&#x221a;" horiz-adv-x="801" 
d="M818 891l-249 -1036h-133l-158 449l-80 -33l-26 91l207 85l100 -307q23 -92 24 -99l2 -2q11 73 19 110l177 742h117z" />
    <glyph glyph-name="infinity" unicode="&#x221e;" horiz-adv-x="929" 
d="M879 306v-2q0 -88 -53.5 -141t-125.5 -53q-50 0 -95.5 25t-93.5 93q-46 -59 -91 -88.5t-105 -29.5q-71 0 -123 52.5t-52 135.5q0 85 52.5 138.5t132.5 53.5q57 0 102 -28t88 -85l13 15q13 15 16 17.5t15.5 16t19 17.5t19.5 14.5t23.5 14t24.5 9t29 7.5t31 2q73 0 123 -51
t50 -133zM326 199h1q38 0 68.5 24.5t66.5 70.5q-29 42 -41.5 58t-39.5 33.5t-58 17.5q-42 0 -67.5 -29t-25.5 -76q0 -41 28 -70t68 -29zM697 403h-1q-10 0 -19.5 -2t-19 -6.5t-16.5 -8.5t-16.5 -12.5t-14.5 -12.5t-14.5 -15.5l-12 -14.5l-12.5 -15.5t-11 -13.5
q46 -61 75 -82t67 -21q39 0 62.5 31.5t23.5 67.5q0 45 -25 75t-66 30z" />
    <glyph glyph-name="integral" unicode="&#x222b;" horiz-adv-x="587" 
d="M564 910l-15 -114q-22 8 -39 8q-35 0 -54 -29q-25 -35 -25 -171q0 -85 8.5 -238t8.5 -256q0 -140 -36 -210q-45 -91 -157 -91q-56 0 -92 18l19 118q28 -10 46 -10q31 0 47 20q26 36 26 154q0 103 -9 261.5t-9 250.5q0 94 16.5 151.5t53.5 96.5q49 53 141 53q39 0 70 -12z
" />
    <glyph glyph-name="approxequal" unicode="&#x2248;" horiz-adv-x="682" 
d="M587 495l58 -56q-29 -53 -69 -83.5t-83 -30.5q-53 0 -119 41q-54 35 -89 35q-22 0 -42 -13t-29.5 -24.5t-28.5 -37.5l-58 56q25 48 69.5 80.5t94.5 32.5q48 0 111 -36q54 -34 73 -38q8 -2 16 -2q28 0 49.5 19t46.5 57zM587 284l58 -55q-29 -53 -69 -84t-84 -31
q-50 0 -118 42q-22 14 -31.5 19t-26 11t-31.5 6q-22 0 -42 -13t-29.5 -24.5t-28.5 -38.5l-58 55q25 49 69.5 81.5t94.5 32.5q9 0 18.5 -1t16.5 -2.5t15.5 -4.5l13 -4.5t13.5 -5.5t11.5 -5.5t11.5 -6.5t10 -6l22.5 -13.5l23 -14t20 -8.5t24.5 -4q28 0 48 18t48 57z" />
    <glyph glyph-name="notequal" unicode="&#x2260;" horiz-adv-x="699" 
d="M551 552l-38 -88h136v-95h-171l-59 -138h230v-94h-267l-51 -121l-75 31l39 90h-137v94h173l59 138h-232v95h268l50 117z" />
    <glyph glyph-name="lessequal" unicode="&#x2264;" horiz-adv-x="718" 
d="M666 111l-484 236v104l484 236v-109l-390 -178v-2l390 -178v-109zM670 -24h-491v97h491v-97z" />
    <glyph glyph-name="greaterequal" unicode="&#x2265;" horiz-adv-x="718" 
d="M184 687l484 -237v-103l-483 -236v109l390 178v2l-391 178v109zM667 -24h-487v97h487v-97z" />
    <glyph glyph-name="lozenge" unicode="&#x25ca;" horiz-adv-x="799" 
d="M750 369l-216 -423h-135l-208 423l214 424h136zM601 365l-108 229q-13 33 -20 65h-4q-5 -20 -20 -65l-110 -222l110 -233q13 -36 18 -61h5q12 46 18 59z" />
    </font>
</defs>
</svg>
